<svg id="svg" version="1.1" xmlns="http://www.w3.org/2000/svg" xmlns:xlink="http://www.w3.org/1999/xlink" width="400" height="252" viewBox="0, 0, 400,252"><g id="svgg"><path id="path0" d="M20.668 36.936 C 20.668 37.011,21.791 38.310,23.164 39.821 C 26.598 43.603,30.197 48.484,33.221 53.464 C 33.554 54.014,33.774 54.789,33.774 55.417 C 33.774 55.990,33.888 56.459,34.026 56.459 C 34.165 56.459,34.279 56.640,34.279 56.862 C 34.279 57.083,34.433 57.622,34.621 58.059 C 35.631 60.398,36.201 64.272,35.536 64.272 C 35.397 64.272,34.926 64.612,34.491 65.028 C 34.056 65.444,33.598 65.784,33.474 65.784 C 33.235 65.784,33.150 65.845,31.725 67.036 C 31.221 67.457,30.741 67.801,30.656 67.801 C 30.411 67.801,29.490 68.649,29.490 68.876 C 29.490 69.071,29.266 69.382,28.544 70.186 C 28.371 70.379,28.229 70.659,28.229 70.807 C 28.229 70.956,28.125 71.078,27.997 71.078 C 27.870 71.078,27.691 71.418,27.599 71.834 C 27.508 72.250,27.329 72.590,27.201 72.590 C 27.074 72.590,26.967 72.732,26.963 72.905 C 26.960 73.078,26.623 73.900,26.213 74.732 C 25.803 75.564,25.466 76.436,25.462 76.671 C 25.459 76.905,25.347 77.165,25.212 77.248 C 25.077 77.331,24.893 77.962,24.802 78.649 C 24.710 79.337,24.537 79.899,24.416 79.899 C 24.295 79.899,24.197 80.176,24.197 80.514 C 24.197 80.853,24.091 81.195,23.962 81.275 C 23.833 81.354,23.650 82.043,23.555 82.805 C 23.459 83.567,23.288 84.248,23.174 84.319 C 23.059 84.390,22.888 85.239,22.792 86.206 C 22.697 87.173,22.532 87.965,22.426 87.965 C 22.320 87.965,22.153 88.986,22.054 90.235 C 21.955 91.483,21.773 92.568,21.649 92.644 C 21.525 92.721,21.424 93.400,21.424 94.155 C 21.424 94.909,21.323 95.526,21.200 95.526 C 21.077 95.526,20.893 97.029,20.792 98.866 C 20.691 100.703,20.518 102.263,20.408 102.333 C 20.298 102.403,20.125 105.100,20.023 108.327 C 19.922 111.553,19.742 114.253,19.623 114.326 C 19.505 114.400,19.405 118.678,19.402 123.833 C 19.398 128.989,19.296 133.635,19.175 134.157 C 19.054 134.680,18.871 140.609,18.768 147.333 C 18.666 154.058,18.484 159.620,18.365 159.694 C 18.051 159.888,18.085 169.880,18.399 169.880 C 18.538 169.880,18.652 170.046,18.652 170.249 C 18.652 170.909,19.578 171.203,20.550 170.851 C 21.031 170.677,21.424 170.454,21.424 170.354 C 21.424 170.254,21.764 170.098,22.180 170.006 C 22.596 169.915,22.936 169.748,22.936 169.636 C 22.936 169.523,23.194 169.366,23.508 169.287 C 23.823 169.208,24.329 168.912,24.632 168.630 C 24.936 168.347,25.294 168.116,25.428 168.116 C 25.563 168.116,25.828 167.974,26.017 167.801 C 26.497 167.360,27.165 166.962,28.481 166.331 C 29.105 166.032,29.790 165.701,30.004 165.596 C 30.217 165.491,31.097 165.323,31.958 165.223 C 32.819 165.124,33.586 164.940,33.664 164.815 C 33.741 164.690,34.079 164.587,34.414 164.587 C 35.041 164.587,37.078 163.872,37.303 163.572 C 37.372 163.480,37.713 163.334,38.059 163.248 C 39.622 162.859,40.110 161.966,39.922 159.843 C 39.827 158.779,39.667 157.851,39.565 157.782 C 39.463 157.713,39.298 156.833,39.198 155.828 C 39.098 154.822,38.927 153.945,38.819 153.878 C 38.711 153.811,38.544 153.132,38.449 152.370 C 38.354 151.608,38.171 150.919,38.042 150.840 C 37.913 150.760,37.807 150.305,37.807 149.828 C 37.807 149.351,37.705 148.960,37.580 148.960 C 37.455 148.960,37.274 148.280,37.177 147.448 C 37.081 146.616,36.911 145.936,36.800 145.936 C 36.689 145.936,36.518 145.141,36.421 144.170 C 36.323 143.199,36.142 142.342,36.017 142.265 C 35.893 142.188,35.791 141.631,35.791 141.027 C 35.791 140.423,35.686 139.891,35.559 139.845 C 35.431 139.798,35.245 138.399,35.146 136.736 C 35.046 135.072,34.883 133.655,34.783 133.585 C 34.684 133.516,34.522 131.003,34.424 128.000 L 34.246 122.541 35.334 122.807 C 35.932 122.953,36.540 123.165,36.685 123.277 C 36.831 123.390,37.426 123.558,38.009 123.651 C 38.591 123.744,39.067 123.906,39.067 124.011 C 39.067 124.116,39.578 124.279,40.202 124.372 C 40.825 124.466,41.336 124.649,41.336 124.779 C 41.336 124.909,41.613 125.016,41.951 125.016 C 42.289 125.016,42.632 125.123,42.713 125.253 C 42.794 125.384,43.396 125.568,44.051 125.663 C 44.706 125.758,45.379 125.944,45.546 126.077 C 46.003 126.440,52.248 126.430,52.370 126.066 C 52.424 125.904,52.682 125.772,52.943 125.772 C 53.685 125.772,55.383 124.792,56.269 123.852 C 56.712 123.383,57.170 122.999,57.288 122.999 C 57.541 122.999,58.223 122.353,58.223 122.114 C 58.223 122.023,59.288 120.876,60.591 119.566 C 63.138 117.001,64.272 115.498,64.272 114.686 C 64.272 114.147,61.024 110.649,60.524 110.649 C 60.368 110.649,60.239 110.541,60.239 110.408 C 60.239 110.276,59.842 110.093,59.357 110.002 C 58.872 109.911,58.475 109.744,58.475 109.630 C 58.475 109.516,56.859 108.636,54.883 107.674 C 50.291 105.437,49.537 105.104,49.063 105.104 C 48.850 105.104,48.607 104.994,48.524 104.859 C 48.441 104.725,47.807 104.540,47.117 104.448 C 46.426 104.356,45.801 104.183,45.726 104.063 C 45.547 103.772,41.657 103.780,41.477 104.071 C 41.400 104.196,40.656 104.377,39.824 104.474 C 38.992 104.570,38.311 104.739,38.311 104.848 C 38.311 104.957,37.804 105.123,37.183 105.216 C 36.562 105.309,35.989 105.492,35.908 105.623 C 35.827 105.753,35.603 105.860,35.410 105.860 C 35.030 105.860,35.163 101.584,35.550 101.323 C 35.654 101.254,35.799 100.573,35.873 99.811 C 36.106 97.403,36.555 94.659,36.782 94.246 C 36.903 94.027,37.083 93.091,37.182 92.166 C 37.281 91.242,37.450 90.485,37.557 90.485 C 37.664 90.485,37.810 90.117,37.881 89.666 C 38.069 88.478,38.561 86.646,38.828 86.148 C 38.954 85.912,39.131 85.260,39.221 84.699 C 39.311 84.139,39.468 83.680,39.572 83.680 C 39.675 83.680,39.832 83.226,39.920 82.672 C 40.009 82.117,40.194 81.664,40.331 81.664 C 40.468 81.664,40.580 81.497,40.580 81.294 C 40.580 80.901,41.356 79.103,41.617 78.891 C 41.702 78.822,41.859 78.481,41.966 78.135 C 42.073 77.788,42.233 77.448,42.322 77.379 C 42.411 77.309,42.700 76.742,42.964 76.118 C 43.228 75.495,43.690 74.644,43.991 74.228 C 44.292 73.812,44.728 73.103,44.960 72.653 C 45.486 71.630,47.385 71.886,47.385 72.979 C 47.385 73.080,47.640 73.402,47.952 73.695 C 48.264 73.988,48.736 74.568,49.000 74.984 C 49.264 75.400,49.633 75.831,49.819 75.942 C 50.005 76.053,50.158 76.308,50.158 76.509 C 50.158 76.710,50.253 76.875,50.369 76.875 C 50.485 76.875,50.797 77.327,51.062 77.880 C 51.327 78.433,51.616 78.887,51.705 78.888 C 51.793 78.890,51.940 79.288,52.031 79.773 C 52.122 80.258,52.305 80.655,52.437 80.655 C 52.570 80.655,52.678 80.818,52.678 81.017 C 52.678 81.216,52.809 81.698,52.969 82.088 C 53.764 84.024,54.175 85.396,54.182 86.137 C 54.187 86.588,54.304 86.957,54.442 86.957 C 54.589 86.957,54.694 87.797,54.694 88.973 C 54.694 90.149,54.589 90.989,54.442 90.989 C 54.304 90.989,54.190 91.628,54.190 92.408 L 54.190 93.827 55.514 93.653 C 56.241 93.557,56.945 93.372,57.076 93.242 C 57.208 93.112,57.690 93.006,58.147 93.006 C 58.605 93.006,58.979 92.903,58.979 92.778 C 58.979 92.653,59.660 92.472,60.492 92.375 C 61.324 92.279,62.061 92.109,62.130 91.997 C 62.199 91.886,62.936 91.716,63.768 91.619 C 65.025 91.474,65.280 91.363,65.280 90.965 C 65.280 90.701,65.384 90.485,65.510 90.485 C 66.021 90.485,66.538 79.039,66.048 78.550 C 65.903 78.405,65.784 77.862,65.784 77.343 C 65.784 76.825,65.686 76.339,65.566 76.265 C 65.445 76.191,65.272 75.565,65.180 74.874 C 65.089 74.184,64.913 73.557,64.791 73.481 C 64.668 73.405,64.492 72.890,64.398 72.336 C 64.304 71.783,64.124 71.330,63.998 71.330 C 63.872 71.330,63.767 71.131,63.767 70.888 C 63.766 70.646,63.596 70.123,63.388 69.725 C 63.181 69.328,63.012 68.846,63.012 68.654 C 63.012 68.462,62.899 68.305,62.760 68.305 C 62.621 68.305,62.508 68.172,62.508 68.010 C 62.508 67.554,60.980 64.524,60.750 64.524 C 60.638 64.524,60.480 64.260,60.399 63.938 C 60.318 63.615,59.965 63.042,59.615 62.664 C 59.265 62.287,58.979 61.918,58.979 61.845 C 58.979 61.773,58.667 61.385,58.286 60.984 C 57.905 60.583,57.457 60.110,57.290 59.932 C 56.801 59.412,56.363 59.091,55.892 58.911 C 55.649 58.819,55.451 58.626,55.451 58.483 C 55.451 58.340,55.294 58.223,55.103 58.223 C 54.912 58.223,54.615 58.053,54.442 57.845 C 54.270 57.637,53.868 57.467,53.550 57.467 C 53.232 57.467,52.925 57.325,52.867 57.152 C 52.792 56.926,51.992 56.837,50.032 56.837 C 48.073 56.837,47.273 56.926,47.197 57.152 C 47.139 57.325,46.919 57.467,46.710 57.467 C 46.290 57.467,44.940 58.170,44.410 58.664 C 44.224 58.837,43.910 58.979,43.712 58.979 C 43.514 58.979,43.352 59.079,43.352 59.202 C 43.352 59.324,43.154 59.491,42.911 59.573 C 42.284 59.783,41.496 60.312,41.260 60.681 C 41.149 60.854,40.904 60.996,40.714 60.996 C 40.525 60.996,40.323 61.136,40.265 61.308 C 40.190 61.536,40.046 61.506,39.740 61.200 C 39.269 60.729,39.198 60.118,39.563 59.662 C 40.342 58.686,42.183 56.483,42.725 55.878 C 43.073 55.490,43.555 54.870,43.796 54.501 C 44.037 54.132,44.518 53.524,44.865 53.150 C 45.675 52.276,46.346 51.474,47.403 50.116 C 47.871 49.515,48.399 48.932,48.577 48.821 C 48.765 48.703,48.840 48.381,48.757 48.048 C 48.649 47.617,48.955 47.036,50.008 45.673 C 53.675 40.927,53.559 40.128,49.772 44.047 C 48.265 45.605,46.834 46.881,46.590 46.881 C 46.347 46.881,45.945 47.170,45.695 47.523 C 45.446 47.876,44.762 48.642,44.176 49.224 C 43.589 49.807,43.107 50.368,43.104 50.472 C 43.102 50.576,42.647 51.142,42.092 51.731 C 41.537 52.320,41.084 52.896,41.084 53.011 C 41.084 53.126,40.772 53.533,40.391 53.914 C 40.009 54.295,39.414 54.966,39.067 55.405 C 38.360 56.300,37.807 56.444,37.807 55.733 C 37.807 55.473,37.637 55.119,37.429 54.946 C 37.221 54.774,37.051 54.501,37.051 54.341 C 37.051 54.181,36.853 53.907,36.610 53.732 C 36.367 53.558,36.055 53.334,35.917 53.235 C 35.778 53.137,34.881 51.865,33.922 50.410 C 29.872 44.257,25.320 39.042,22.639 37.484 C 21.551 36.852,20.668 36.606,20.668 36.936 M272.968 57.195 C 272.968 57.322,272.628 57.502,272.212 57.593 C 271.796 57.684,271.456 57.863,271.456 57.991 C 271.456 58.119,271.285 58.223,271.078 58.223 C 270.870 58.223,270.699 58.324,270.699 58.448 C 270.699 58.571,270.416 58.744,270.069 58.831 C 269.723 58.918,269.439 59.091,269.439 59.216 C 269.439 59.341,269.099 59.518,268.683 59.609 C 268.267 59.701,267.927 59.880,267.927 60.007 C 267.927 60.135,267.766 60.239,267.569 60.239 C 267.160 60.239,265.722 60.969,265.211 61.437 C 265.021 61.610,264.704 61.752,264.506 61.752 C 264.308 61.752,264.145 61.837,264.144 61.941 C 264.142 62.045,263.632 62.354,263.010 62.627 C 262.387 62.901,261.878 63.213,261.878 63.321 C 261.878 63.428,261.716 63.516,261.518 63.516 C 261.320 63.516,261.003 63.658,260.814 63.831 C 260.625 64.004,260.248 64.271,259.977 64.423 C 259.669 64.595,259.396 65.140,259.252 65.872 C 259.125 66.517,258.926 67.045,258.811 67.045 C 258.696 67.045,258.601 67.322,258.601 67.660 C 258.601 67.998,258.496 68.340,258.367 68.420 C 258.238 68.500,258.062 69.215,257.976 70.010 C 257.891 70.805,257.701 71.671,257.555 71.934 C 257.388 72.236,257.296 74.690,257.307 78.551 L 257.325 84.688 256.703 84.688 C 256.361 84.688,256.081 84.583,256.081 84.454 C 256.081 84.326,255.428 84.141,254.631 84.045 C 253.834 83.949,253.069 83.782,252.930 83.676 C 252.229 83.136,240.706 82.655,240.706 83.165 C 240.706 83.310,240.252 83.428,239.698 83.428 C 239.143 83.428,238.689 83.525,238.689 83.645 C 238.689 83.764,238.102 83.931,237.385 84.016 C 236.668 84.101,236.016 84.276,235.936 84.405 C 235.856 84.533,235.252 84.719,234.594 84.818 C 233.935 84.917,233.396 85.098,233.396 85.221 C 233.396 85.344,233.230 85.444,233.027 85.444 C 232.619 85.444,230.824 86.228,230.621 86.495 C 230.551 86.588,230.182 86.743,229.802 86.838 C 229.422 86.933,229.112 87.112,229.112 87.236 C 229.112 87.359,228.931 87.461,228.709 87.461 C 228.321 87.461,226.848 88.182,226.591 88.498 C 226.522 88.583,226.210 88.733,225.898 88.830 C 225.586 88.927,225.331 89.100,225.331 89.215 C 225.331 89.329,225.026 89.499,224.653 89.593 C 224.280 89.686,223.791 89.974,223.566 90.233 C 223.342 90.492,222.853 90.780,222.480 90.874 C 222.107 90.967,221.802 91.125,221.802 91.224 C 221.802 91.323,221.320 91.655,220.731 91.962 C 219.152 92.785,218.674 93.096,218.450 93.447 C 218.339 93.620,218.084 93.762,217.883 93.762 C 217.682 93.762,217.517 93.875,217.517 94.014 C 217.517 94.152,217.287 94.266,217.005 94.266 C 216.724 94.266,216.428 94.436,216.348 94.644 C 216.268 94.852,216.045 95.022,215.852 95.022 C 215.659 95.022,215.501 95.135,215.501 95.274 C 215.501 95.413,215.339 95.526,215.141 95.526 C 214.943 95.526,214.629 95.668,214.444 95.841 C 214.259 96.014,213.683 96.373,213.166 96.637 C 212.648 96.901,212.224 97.213,212.224 97.330 C 212.224 97.447,212.049 97.543,211.835 97.543 C 211.620 97.543,211.252 97.882,211.015 98.297 C 210.779 98.712,210.501 99.052,210.397 99.053 C 210.293 99.054,210.208 99.167,210.208 99.303 C 210.208 99.440,209.868 100.104,209.452 100.780 C 209.036 101.456,208.696 102.252,208.696 102.548 C 208.696 102.845,208.601 103.088,208.485 103.088 C 208.368 103.088,208.069 103.740,207.819 104.537 C 207.569 105.334,207.239 106.259,207.085 106.591 C 206.672 107.484,206.704 117.579,207.120 117.996 C 207.294 118.170,207.435 118.458,207.435 118.637 C 207.435 119.124,208.281 120.983,208.503 120.983 C 208.609 120.983,208.696 121.103,208.696 121.249 C 208.696 121.740,209.714 123.756,209.962 123.756 C 210.097 123.756,210.208 123.926,210.208 124.134 C 210.208 124.342,210.314 124.512,210.443 124.512 C 210.572 124.512,210.758 124.767,210.856 125.079 C 210.954 125.391,211.416 126.007,211.881 126.448 C 212.347 126.889,212.728 127.357,212.728 127.486 C 212.728 127.782,217.983 133.081,218.275 133.081 C 218.393 133.081,218.644 133.223,218.833 133.396 C 219.335 133.856,220.100 134.335,220.605 134.504 C 220.848 134.586,221.046 134.744,221.046 134.855 C 221.046 134.966,221.386 135.132,221.802 135.224 C 222.218 135.315,222.558 135.489,222.558 135.610 C 222.558 135.732,222.955 135.905,223.440 135.996 C 223.926 136.087,224.323 136.263,224.323 136.386 C 224.323 136.509,224.543 136.610,224.812 136.610 C 225.081 136.610,225.367 136.717,225.448 136.847 C 225.529 136.978,226.131 137.162,226.786 137.257 C 227.441 137.352,228.130 137.551,228.316 137.700 C 228.783 138.073,236.991 138.082,237.458 137.710 C 237.650 137.557,238.246 137.353,238.783 137.256 C 239.320 137.159,239.944 136.983,240.170 136.866 C 241.046 136.409,242.433 135.854,242.697 135.854 C 242.850 135.854,242.974 135.754,242.974 135.631 C 242.974 135.509,243.173 135.342,243.415 135.260 C 244.043 135.050,244.830 134.521,245.066 134.152 C 245.177 133.979,245.414 133.837,245.592 133.837 C 247.137 133.837,256.081 123.289,256.081 121.466 C 256.081 121.201,256.169 120.983,256.277 120.983 C 256.385 120.983,256.694 120.416,256.963 119.723 C 257.232 119.030,257.530 118.463,257.626 118.463 C 257.722 118.463,257.877 118.009,257.971 117.454 C 258.373 115.076,258.601 116.766,258.601 122.117 C 258.601 125.730,258.693 127.788,258.853 127.788 C 258.992 127.788,259.105 128.398,259.105 129.143 C 259.105 132.320,259.734 132.982,262.015 132.207 C 262.771 131.950,263.390 131.659,263.390 131.560 C 263.390 131.462,263.844 131.309,264.398 131.220 C 264.953 131.131,265.406 130.959,265.406 130.837 C 265.406 130.715,265.718 130.540,266.100 130.448 C 267.071 130.213,268.179 129.714,268.179 129.511 C 268.179 129.417,268.519 129.266,268.935 129.175 C 269.351 129.083,269.691 128.917,269.691 128.804 C 269.691 128.692,270.080 128.528,270.555 128.438 C 271.030 128.349,271.455 128.195,271.500 128.095 C 271.614 127.842,273.411 127.032,273.859 127.032 C 274.062 127.032,274.228 126.931,274.228 126.807 C 274.228 126.684,274.539 126.505,274.919 126.409 C 275.299 126.314,275.667 126.159,275.738 126.066 C 275.809 125.972,276.624 125.521,277.549 125.063 C 279.913 123.893,279.909 123.900,279.553 121.288 C 279.388 120.080,279.188 118.611,279.110 118.021 C 279.031 117.432,278.878 116.950,278.769 116.950 C 278.661 116.950,278.492 116.100,278.395 115.062 C 278.298 114.023,278.123 113.114,278.007 113.043 C 277.891 112.971,277.717 112.175,277.621 111.273 C 277.524 110.371,277.345 109.572,277.223 109.496 C 277.101 109.421,277.001 108.865,277.001 108.261 C 277.001 107.657,276.895 107.125,276.765 107.078 C 276.636 107.032,276.449 105.321,276.351 103.277 C 276.252 101.232,276.075 99.559,275.956 99.559 C 275.837 99.559,275.740 96.156,275.740 91.997 C 275.740 87.839,275.837 84.436,275.955 84.436 C 276.073 84.436,276.251 82.595,276.350 80.345 C 276.449 78.095,276.619 76.195,276.727 76.123 C 276.836 76.051,276.995 75.369,277.081 74.606 C 277.168 73.844,277.352 72.483,277.492 71.582 C 277.632 70.681,277.749 69.184,277.752 68.257 C 277.754 67.329,277.870 66.500,278.009 66.415 C 278.323 66.220,278.350 60.239,278.036 60.239 C 277.913 60.239,277.736 59.939,277.644 59.571 C 277.456 58.824,276.130 57.467,275.588 57.467 C 275.394 57.467,275.236 57.353,275.236 57.215 C 275.236 57.076,274.726 56.963,274.102 56.963 C 273.478 56.963,272.968 57.067,272.968 57.195 M101.470 63.987 C 101.395 64.107,100.760 64.282,100.058 64.375 C 99.357 64.468,98.411 64.753,97.956 65.008 C 97.502 65.263,96.769 65.551,96.328 65.648 C 95.887 65.745,95.526 65.916,95.526 66.029 C 95.526 66.141,95.129 66.307,94.644 66.398 C 94.159 66.489,93.761 66.643,93.759 66.741 C 93.758 66.839,93.248 67.143,92.625 67.416 C 92.003 67.690,91.493 67.994,91.493 68.092 C 91.493 68.191,91.238 68.351,90.926 68.449 C 90.614 68.547,90.109 68.895,89.804 69.222 C 89.499 69.549,89.182 69.817,89.100 69.817 C 88.908 69.817,88.368 70.272,87.514 71.152 C 87.138 71.540,86.519 72.154,86.137 72.517 C 85.756 72.880,85.444 73.329,85.444 73.514 C 85.444 73.699,85.331 73.850,85.192 73.850 C 85.054 73.850,84.940 74.050,84.940 74.294 C 84.940 74.845,86.091 76.118,86.589 76.118 C 86.791 76.118,86.957 76.205,86.957 76.311 C 86.957 76.417,87.432 76.710,88.013 76.961 C 89.041 77.407,89.574 77.411,90.611 76.984 C 91.117 76.775,90.777 77.113,88.940 78.639 C 87.895 79.508,84.224 83.258,83.734 83.959 C 83.513 84.274,82.900 84.964,82.372 85.492 C 81.844 86.020,81.411 86.510,81.411 86.581 C 81.411 86.699,80.441 87.858,79.710 88.612 C 79.537 88.791,79.395 89.058,79.395 89.207 C 79.395 89.355,79.291 89.477,79.164 89.477 C 79.036 89.477,78.674 89.902,78.358 90.422 C 78.042 90.942,77.708 91.424,77.615 91.493 C 77.522 91.563,77.367 91.875,77.270 92.187 C 77.172 92.498,76.987 92.754,76.858 92.754 C 76.728 92.754,76.623 92.924,76.623 93.132 C 76.623 93.340,76.506 93.510,76.364 93.510 C 76.222 93.510,75.996 93.765,75.861 94.077 C 75.608 94.660,75.081 95.555,74.858 95.778 C 74.604 96.033,74.083 96.925,73.939 97.353 C 73.858 97.596,73.691 97.795,73.569 97.795 C 73.446 97.795,73.346 97.930,73.346 98.095 C 73.346 98.484,71.766 101.676,71.519 101.785 C 71.415 101.832,71.329 102.002,71.328 102.163 C 71.327 102.325,71.156 102.784,70.948 103.184 C 70.739 103.584,70.499 104.349,70.413 104.885 C 70.327 105.421,70.158 105.860,70.037 105.860 C 69.916 105.860,69.817 106.121,69.817 106.440 C 69.817 106.759,69.675 107.161,69.502 107.335 C 69.271 107.566,69.187 109.005,69.187 112.741 C 69.187 117.868,69.218 118.097,70.225 120.391 C 70.417 120.828,70.573 121.300,70.573 121.441 C 70.573 121.582,70.663 121.735,70.773 121.781 C 70.883 121.827,71.233 122.290,71.550 122.810 C 71.867 123.330,72.231 123.756,72.358 123.756 C 72.486 123.756,72.590 123.874,72.590 124.018 C 72.590 124.439,73.967 125.940,75.356 127.032 C 75.796 127.379,76.392 127.861,76.680 128.103 C 76.968 128.346,77.305 128.544,77.429 128.544 C 77.553 128.544,77.918 128.828,78.239 129.175 C 78.560 129.521,78.952 129.805,79.109 129.805 C 79.266 129.805,79.395 129.906,79.395 130.029 C 79.395 130.153,79.679 130.325,80.025 130.412 C 80.372 130.499,80.655 130.673,80.655 130.798 C 80.655 130.923,80.996 131.100,81.411 131.191 C 81.827 131.282,82.168 131.435,82.168 131.530 C 82.168 131.717,84.031 132.577,84.438 132.577 C 84.575 132.577,84.688 132.681,84.688 132.807 C 84.688 132.934,85.142 133.114,85.696 133.207 C 86.251 133.301,86.704 133.481,86.704 133.608 C 86.704 133.734,87.022 133.837,87.410 133.837 C 87.798 133.837,88.234 133.956,88.379 134.101 C 88.524 134.246,89.458 134.433,90.454 134.516 C 91.451 134.600,92.326 134.765,92.399 134.883 C 92.586 135.186,96.975 135.152,97.164 134.846 C 97.250 134.707,97.836 134.594,98.467 134.594 C 99.593 134.594,102.728 133.985,103.718 133.574 C 103.995 133.459,104.505 133.292,104.852 133.203 C 105.539 133.027,106.989 132.442,107.684 132.061 C 107.925 131.929,108.293 131.821,108.503 131.821 C 108.713 131.821,108.885 131.720,108.885 131.596 C 108.885 131.473,109.168 131.300,109.515 131.213 C 109.861 131.126,110.145 130.953,110.145 130.828 C 110.145 130.703,110.485 130.526,110.901 130.435 C 111.317 130.343,111.657 130.178,111.657 130.066 C 111.657 129.955,111.856 129.797,112.098 129.715 C 112.603 129.546,113.368 129.067,113.870 128.607 C 114.059 128.434,114.366 128.292,114.553 128.292 C 114.739 128.292,114.930 128.207,114.976 128.103 C 115.096 127.833,116.742 126.647,117.265 126.454 C 117.508 126.365,117.706 126.187,117.706 126.059 C 117.706 125.931,117.990 125.755,118.336 125.668 C 118.683 125.581,118.967 125.399,118.967 125.263 C 118.967 125.127,119.137 125.016,119.345 125.016 C 119.553 125.016,119.723 124.904,119.723 124.769 C 119.723 124.633,120.006 124.450,120.353 124.363 C 120.699 124.276,120.983 124.115,120.983 124.005 C 120.983 123.895,121.352 123.570,121.802 123.282 C 122.253 122.994,122.847 122.615,123.124 122.438 C 123.400 122.262,123.876 121.862,124.183 121.550 C 124.489 121.238,124.826 120.983,124.931 120.983 C 125.261 120.983,127.284 118.879,127.284 118.536 C 127.284 118.357,127.398 118.210,127.536 118.210 C 127.675 118.210,127.788 118.099,127.788 117.962 C 127.788 117.826,128.129 117.161,128.544 116.485 C 128.960 115.809,129.301 115.014,129.301 114.717 C 129.301 114.420,129.414 114.178,129.553 114.178 C 129.691 114.178,129.805 114.058,129.805 113.912 C 129.805 113.765,130.145 112.960,130.561 112.121 C 130.977 111.283,131.317 110.382,131.317 110.119 C 131.317 109.856,131.402 109.641,131.506 109.641 C 131.610 109.641,131.902 108.932,132.154 108.066 C 132.406 107.199,132.723 106.130,132.857 105.689 C 132.991 105.249,133.170 104.285,133.256 103.547 C 133.341 102.809,133.535 102.124,133.687 102.026 C 134.078 101.771,134.074 86.505,133.683 86.254 C 133.529 86.155,133.320 85.507,133.219 84.814 C 133.117 84.121,132.955 83.440,132.859 83.302 C 132.762 83.163,132.471 82.398,132.211 81.601 C 131.952 80.803,131.653 80.151,131.548 80.151 C 131.443 80.151,131.282 79.811,131.191 79.395 C 131.100 78.979,130.933 78.639,130.820 78.639 C 130.708 78.639,130.544 78.355,130.457 78.009 C 130.370 77.662,130.188 77.379,130.052 77.379 C 129.916 77.379,129.805 77.209,129.805 77.001 C 129.805 76.793,129.699 76.623,129.570 76.623 C 129.440 76.623,129.266 76.406,129.182 76.141 C 128.982 75.512,124.903 71.408,124.281 71.210 C 124.018 71.127,123.738 70.893,123.661 70.690 C 123.583 70.487,123.351 70.321,123.146 70.321 C 122.941 70.321,122.467 70.038,122.093 69.691 C 121.719 69.345,121.203 69.061,120.946 69.061 C 120.689 69.061,120.479 68.957,120.479 68.829 C 120.479 68.701,120.139 68.522,119.723 68.431 C 119.307 68.340,118.967 68.187,118.967 68.092 C 118.967 67.873,117.071 67.045,116.570 67.045 C 116.363 67.045,116.194 66.931,116.194 66.793 C 116.194 66.654,115.939 66.540,115.627 66.539 C 115.315 66.538,114.749 66.375,114.368 66.177 C 113.988 65.978,113.164 65.739,112.538 65.645 C 111.911 65.551,111.337 65.374,111.261 65.251 C 111.185 65.129,110.790 65.028,110.382 65.028 C 109.974 65.028,109.641 64.922,109.641 64.792 C 109.641 64.661,108.844 64.476,107.871 64.380 C 106.897 64.284,106.040 64.107,105.966 63.987 C 105.789 63.701,101.646 63.701,101.470 63.987 M170.277 63.991 C 170.201 64.113,169.514 64.291,168.749 64.387 C 167.985 64.482,167.360 64.666,167.360 64.794 C 167.360 64.923,167.076 65.028,166.730 65.028 C 166.383 65.028,166.100 65.129,166.100 65.252 C 166.100 65.376,165.703 65.551,165.217 65.642 C 164.732 65.733,164.335 65.903,164.335 66.020 C 164.335 66.137,163.938 66.307,163.453 66.398 C 162.968 66.489,162.570 66.643,162.569 66.741 C 162.567 66.839,162.057 67.143,161.434 67.416 C 160.812 67.690,160.302 67.994,160.302 68.092 C 160.302 68.191,160.047 68.351,159.735 68.449 C 159.423 68.547,158.918 68.895,158.613 69.222 C 158.308 69.549,157.991 69.817,157.909 69.817 C 157.717 69.817,157.177 70.272,156.323 71.152 C 155.947 71.540,155.328 72.154,154.946 72.517 C 154.565 72.880,154.253 73.329,154.253 73.514 C 154.253 73.699,154.140 73.850,154.001 73.850 C 153.863 73.850,153.749 74.050,153.749 74.294 C 153.749 74.845,154.900 76.118,155.398 76.118 C 155.600 76.118,155.766 76.204,155.767 76.307 C 155.768 76.617,158.011 77.444,158.482 77.309 C 158.721 77.240,159.143 77.092,159.420 76.980 C 159.928 76.775,159.591 77.109,157.749 78.639 C 156.634 79.565,152.993 83.270,152.993 83.479 C 152.993 83.577,152.369 84.287,151.607 85.055 C 150.844 85.824,150.221 86.510,150.221 86.581 C 150.221 86.699,149.250 87.858,148.519 88.612 C 148.346 88.791,148.204 89.058,148.204 89.207 C 148.204 89.355,148.100 89.477,147.973 89.477 C 147.845 89.477,147.483 89.902,147.167 90.422 C 146.851 90.942,146.530 91.424,146.453 91.493 C 146.204 91.719,145.673 92.617,145.521 93.069 C 145.439 93.311,145.270 93.510,145.144 93.510 C 145.018 93.510,144.805 93.765,144.670 94.077 C 144.418 94.660,143.890 95.555,143.667 95.778 C 143.413 96.033,142.892 96.925,142.748 97.353 C 142.667 97.596,142.500 97.795,142.378 97.795 C 142.255 97.795,142.155 97.907,142.155 98.045 C 142.155 98.452,141.295 100.315,141.107 100.315 C 141.012 100.315,140.860 100.655,140.769 101.071 C 140.677 101.487,140.507 101.827,140.391 101.827 C 140.274 101.827,140.099 102.196,140.001 102.647 C 139.903 103.097,139.752 103.522,139.666 103.592 C 139.449 103.766,138.626 106.218,138.626 106.692 C 138.626 106.905,138.485 107.126,138.311 107.184 C 138.072 107.263,137.996 108.603,137.996 112.737 C 137.996 116.760,138.079 118.268,138.311 118.500 C 138.485 118.674,138.626 119.016,138.626 119.261 C 138.626 119.691,139.365 121.483,139.648 121.739 C 139.724 121.808,140.046 122.290,140.362 122.810 C 140.677 123.330,141.040 123.756,141.167 123.756 C 141.295 123.756,141.399 123.874,141.399 124.018 C 141.399 124.439,142.777 125.940,144.165 127.032 C 144.605 127.379,145.201 127.861,145.489 128.103 C 145.777 128.346,146.114 128.544,146.238 128.544 C 146.362 128.544,146.727 128.828,147.048 129.175 C 147.369 129.521,147.761 129.805,147.918 129.805 C 148.075 129.805,148.204 129.906,148.204 130.029 C 148.204 130.153,148.488 130.325,148.834 130.412 C 149.181 130.499,149.464 130.673,149.464 130.798 C 149.464 130.923,149.805 131.100,150.221 131.191 C 150.636 131.282,150.977 131.435,150.977 131.530 C 150.977 131.717,152.840 132.577,153.247 132.577 C 153.385 132.577,153.497 132.681,153.497 132.807 C 153.497 132.934,153.951 133.114,154.505 133.207 C 155.060 133.301,155.514 133.481,155.514 133.608 C 155.514 133.734,155.831 133.837,156.219 133.837 C 156.607 133.837,157.044 133.956,157.188 134.101 C 157.333 134.246,158.267 134.433,159.263 134.516 C 160.260 134.600,161.135 134.765,161.208 134.883 C 161.395 135.186,165.784 135.152,165.974 134.846 C 166.059 134.707,166.645 134.594,167.276 134.594 C 168.402 134.594,171.537 133.985,172.527 133.574 C 172.804 133.459,173.314 133.292,173.661 133.203 C 174.348 133.027,175.798 132.442,176.493 132.061 C 176.734 131.929,177.102 131.821,177.312 131.821 C 177.522 131.821,177.694 131.720,177.694 131.596 C 177.694 131.473,177.977 131.300,178.324 131.213 C 178.670 131.126,178.954 130.953,178.954 130.828 C 178.954 130.703,179.294 130.526,179.710 130.435 C 180.126 130.343,180.466 130.178,180.466 130.066 C 180.466 129.955,180.665 129.797,180.907 129.715 C 181.412 129.546,182.177 129.067,182.679 128.607 C 182.868 128.434,183.175 128.292,183.362 128.292 C 183.548 128.292,183.739 128.207,183.785 128.103 C 183.905 127.833,185.551 126.647,186.074 126.454 C 186.317 126.365,186.515 126.187,186.515 126.059 C 186.515 125.931,186.799 125.755,187.146 125.668 C 187.492 125.581,187.776 125.399,187.776 125.263 C 187.776 125.127,187.946 125.016,188.154 125.016 C 188.362 125.016,188.532 124.904,188.532 124.769 C 188.532 124.633,188.807 124.452,189.144 124.368 C 189.480 124.283,189.817 124.054,189.892 123.859 C 189.967 123.663,190.182 123.503,190.370 123.503 C 190.558 123.503,190.979 123.220,191.304 122.873 C 191.630 122.527,192.005 122.243,192.139 122.243 C 192.272 122.243,192.644 121.960,192.965 121.613 C 193.286 121.267,193.617 120.983,193.702 120.983 C 194.018 120.983,196.093 118.870,196.093 118.548 C 196.093 118.362,196.180 118.210,196.286 118.210 C 196.391 118.210,196.590 117.993,196.727 117.727 C 197.579 116.069,198.617 113.909,198.978 113.043 C 199.209 112.489,199.561 111.734,199.762 111.366 C 199.962 110.998,200.126 110.460,200.126 110.169 C 200.126 109.879,200.232 109.641,200.363 109.641 C 200.493 109.641,200.676 109.130,200.769 108.507 C 200.863 107.883,201.028 107.372,201.135 107.372 C 201.243 107.372,201.394 107.004,201.471 106.553 C 201.730 105.040,202.300 102.714,202.537 102.205 C 202.894 101.440,202.843 86.478,202.483 86.254 C 202.324 86.155,202.112 85.422,202.013 84.625 C 201.914 83.828,201.732 83.176,201.609 83.176 C 201.487 83.176,201.386 82.892,201.386 82.546 C 201.386 82.199,201.285 81.916,201.162 81.916 C 201.039 81.916,200.864 81.519,200.773 81.033 C 200.682 80.548,200.511 80.151,200.394 80.151 C 200.277 80.151,200.103 79.840,200.007 79.461 C 199.912 79.081,199.758 78.712,199.665 78.641 C 199.410 78.448,198.870 77.562,198.703 77.064 C 198.622 76.821,198.455 76.623,198.332 76.623 C 198.210 76.623,198.110 76.472,198.110 76.288 C 198.110 75.916,194.693 72.338,194.337 72.338 C 194.213 72.338,194.039 72.111,193.951 71.834 C 193.863 71.557,193.515 71.261,193.178 71.177 C 192.841 71.092,192.565 70.929,192.565 70.815 C 192.565 70.701,192.334 70.534,192.052 70.445 C 191.771 70.355,191.244 70.007,190.881 69.672 C 190.519 69.336,190.012 69.061,189.755 69.061 C 189.498 69.061,189.288 68.950,189.288 68.814 C 189.288 68.678,188.976 68.490,188.595 68.397 C 188.214 68.304,187.845 68.154,187.776 68.064 C 187.563 67.789,185.834 67.045,185.406 67.045 C 185.184 67.045,185.003 66.931,185.003 66.793 C 185.003 66.654,184.748 66.540,184.436 66.539 C 184.124 66.538,183.558 66.375,183.177 66.177 C 182.797 65.978,181.973 65.739,181.347 65.645 C 180.720 65.551,180.146 65.374,180.070 65.251 C 179.994 65.129,179.599 65.028,179.191 65.028 C 178.783 65.028,178.450 64.922,178.450 64.792 C 178.450 64.661,177.653 64.476,176.680 64.380 C 175.707 64.284,174.849 64.107,174.775 63.987 C 174.597 63.699,170.455 63.703,170.277 63.991 M107.435 80.041 C 107.817 80.131,108.129 80.298,108.129 80.411 C 108.129 80.523,108.488 80.694,108.927 80.791 C 109.367 80.887,110.010 81.229,110.356 81.550 C 110.702 81.871,111.363 82.337,111.825 82.586 C 112.287 82.835,112.665 83.126,112.665 83.233 C 112.665 83.340,112.789 83.428,112.940 83.428 C 113.542 83.428,117.777 88.012,118.121 89.036 C 118.203 89.279,118.367 89.477,118.486 89.477 C 118.712 89.477,119.723 91.524,119.723 91.984 C 119.723 92.130,119.812 92.250,119.922 92.250 C 120.740 92.250,121.286 98.930,120.715 101.953 C 120.584 102.647,120.405 103.667,120.318 104.222 C 120.230 104.776,120.066 105.349,119.952 105.495 C 119.838 105.640,119.668 106.264,119.573 106.881 C 119.479 107.498,119.317 108.116,119.213 108.255 C 119.110 108.393,118.946 108.875,118.850 109.326 C 118.753 109.776,118.570 110.145,118.442 110.145 C 118.315 110.145,118.210 110.306,118.210 110.503 C 118.210 110.923,117.413 112.502,117.139 112.623 C 117.035 112.670,116.950 112.848,116.950 113.019 C 116.950 113.191,116.610 113.712,116.194 114.178 C 115.778 114.644,115.438 115.118,115.438 115.231 C 115.438 115.345,115.316 115.438,115.166 115.438 C 115.017 115.438,114.567 115.750,114.166 116.131 C 113.766 116.512,113.292 116.961,113.115 117.127 C 112.109 118.070,111.889 118.845,112.464 119.420 C 112.699 119.656,112.671 119.723,112.338 119.723 C 112.102 119.723,111.909 119.836,111.909 119.975 C 111.909 120.113,111.576 120.227,111.168 120.227 C 110.760 120.227,110.361 120.334,110.280 120.464 C 110.199 120.595,109.342 120.780,108.375 120.875 C 107.408 120.970,106.616 121.147,106.616 121.268 C 106.616 121.554,101.899 121.555,101.722 121.268 C 101.647 121.148,100.904 120.972,100.069 120.878 C 99.234 120.783,98.551 120.598,98.551 120.466 C 98.551 120.335,98.267 120.227,97.921 120.227 C 97.574 120.227,97.290 120.122,97.290 119.995 C 97.290 119.867,96.950 119.688,96.534 119.597 C 96.118 119.505,95.778 119.335,95.778 119.219 C 95.778 119.102,95.438 118.932,95.022 118.841 C 94.606 118.749,94.266 118.583,94.266 118.472 C 94.266 118.360,94.067 118.203,93.825 118.121 C 93.126 117.887,91.393 116.611,90.692 115.816 C 89.506 114.471,89.040 113.844,88.693 113.127 C 88.470 112.665,88.130 111.958,87.937 111.555 C 87.497 110.635,87.440 104.358,87.867 103.819 C 88.021 103.625,88.227 103.133,88.324 102.727 C 88.422 102.320,88.713 101.550,88.972 101.014 C 89.230 100.479,89.515 99.706,89.605 99.296 C 89.695 98.886,89.874 98.551,90.001 98.551 C 90.129 98.551,90.233 98.389,90.233 98.191 C 90.233 97.993,90.375 97.681,90.549 97.498 C 90.722 97.314,91.088 96.739,91.362 96.219 C 91.636 95.699,91.935 95.274,92.027 95.274 C 92.120 95.274,92.273 94.963,92.368 94.583 C 92.464 94.204,92.618 93.835,92.711 93.764 C 93.101 93.467,94.518 91.501,94.518 91.256 C 94.518 91.109,94.624 90.989,94.753 90.989 C 94.882 90.989,95.059 90.765,95.146 90.491 C 95.233 90.216,95.865 89.435,96.550 88.754 C 97.234 88.072,97.795 87.450,97.795 87.369 C 97.795 87.186,102.269 82.672,102.451 82.672 C 102.525 82.672,103.174 82.105,103.893 81.411 C 104.612 80.718,105.349 80.151,105.530 80.151 C 105.712 80.151,105.860 80.030,105.860 79.882 C 105.860 79.734,106.059 79.672,106.301 79.744 C 106.544 79.816,107.054 79.950,107.435 80.041 M176.244 80.041 C 176.626 80.131,176.938 80.298,176.938 80.411 C 176.938 80.523,177.283 80.691,177.705 80.784 C 178.127 80.877,178.768 81.226,179.128 81.560 C 179.489 81.894,179.943 82.168,180.137 82.168 C 180.331 82.168,180.753 82.451,181.074 82.798 C 181.396 83.144,181.741 83.428,181.841 83.428 C 182.079 83.428,186.263 87.601,186.263 87.838 C 186.263 87.937,186.604 88.448,187.020 88.973 C 187.435 89.498,187.776 90.053,187.776 90.206 C 187.776 90.360,187.876 90.485,188.000 90.485 C 188.123 90.485,188.298 90.882,188.389 91.367 C 188.480 91.853,188.640 92.250,188.745 92.250 C 189.963 92.250,189.996 102.793,188.787 105.482 C 188.662 105.759,188.487 106.468,188.398 107.056 C 188.309 107.644,188.132 108.190,188.006 108.268 C 187.879 108.346,187.776 108.595,187.776 108.821 C 187.776 109.227,186.287 112.421,185.984 112.665 C 185.898 112.735,185.748 113.047,185.650 113.359 C 185.553 113.670,185.367 113.926,185.238 113.926 C 185.109 113.926,185.003 114.039,185.003 114.178 C 185.003 114.435,184.099 115.438,183.867 115.438 C 183.719 115.438,182.291 116.666,181.878 117.148 C 181.725 117.326,181.459 117.630,181.285 117.823 C 180.886 118.268,180.880 119.028,181.273 119.420 C 181.508 119.656,181.480 119.723,181.147 119.723 C 180.911 119.723,180.718 119.836,180.718 119.975 C 180.718 120.113,180.385 120.227,179.977 120.227 C 179.569 120.227,179.170 120.334,179.089 120.464 C 179.008 120.595,178.151 120.780,177.184 120.875 C 176.217 120.970,175.425 121.147,175.425 121.268 C 175.425 121.554,170.708 121.555,170.531 121.268 C 170.457 121.148,169.713 120.972,168.878 120.878 C 168.043 120.783,167.360 120.617,167.360 120.507 C 167.360 120.398,166.736 120.097,165.974 119.838 C 165.211 119.578,164.587 119.285,164.587 119.186 C 164.587 119.088,164.247 118.932,163.831 118.841 C 163.415 118.749,163.075 118.583,163.075 118.472 C 163.075 118.360,162.876 118.203,162.634 118.121 C 161.413 117.711,158.951 115.540,158.091 114.115 C 157.861 113.733,157.589 113.422,157.487 113.422 C 157.385 113.422,157.223 112.996,157.127 112.476 C 157.031 111.957,156.828 111.450,156.674 111.351 C 156.283 111.098,156.295 104.295,156.688 103.819 C 156.849 103.625,157.064 103.012,157.166 102.457 C 157.267 101.903,157.428 101.393,157.522 101.323 C 157.773 101.138,159.294 97.931,159.294 97.586 C 159.294 97.423,159.379 97.290,159.483 97.289 C 159.587 97.287,159.792 97.032,159.939 96.721 C 160.332 95.885,161.417 93.909,161.563 93.763 C 162.082 93.240,163.327 91.472,163.327 91.256 C 163.327 91.109,163.433 90.989,163.562 90.989 C 163.691 90.989,163.868 90.765,163.955 90.491 C 164.042 90.216,164.674 89.435,165.359 88.754 C 166.043 88.072,166.604 87.447,166.604 87.363 C 166.604 87.196,170.838 82.924,171.003 82.924 C 171.060 82.924,171.761 82.300,172.560 81.537 C 173.360 80.775,174.162 80.151,174.342 80.151 C 174.522 80.151,174.669 80.030,174.669 79.882 C 174.669 79.734,174.868 79.672,175.110 79.744 C 175.353 79.816,175.863 79.950,176.244 80.041 M248.393 98.047 C 248.479 98.185,248.785 98.299,249.074 98.299 C 249.959 98.299,251.796 99.349,251.796 99.856 C 251.796 100.108,251.895 100.315,252.016 100.315 C 252.138 100.315,252.306 100.662,252.391 101.086 C 252.699 102.628,253.959 102.973,256.482 102.208 C 257.162 102.002,257.792 101.832,257.880 101.830 C 258.801 101.815,257.860 107.799,256.811 108.633 C 256.724 108.702,256.573 109.014,256.476 109.326 C 256.378 109.638,256.193 109.893,256.064 109.893 C 255.934 109.893,255.829 110.063,255.829 110.271 C 255.829 110.479,255.715 110.649,255.577 110.649 C 255.438 110.649,255.325 110.811,255.325 111.009 C 255.325 111.207,255.169 111.524,254.980 111.714 C 254.790 111.904,254.556 112.309,254.459 112.614 C 254.362 112.920,254.177 113.170,254.047 113.170 C 253.918 113.170,253.812 113.340,253.812 113.548 C 253.812 113.756,253.695 113.926,253.552 113.926 C 253.409 113.926,253.217 114.124,253.125 114.367 C 253.033 114.609,252.838 114.938,252.692 115.097 C 252.546 115.255,252.142 115.746,251.796 116.187 C 251.449 116.628,250.967 117.224,250.725 117.512 C 250.482 117.800,250.284 118.137,250.284 118.261 C 250.284 118.385,250.000 118.749,249.653 119.071 C 249.307 119.392,249.023 119.725,249.023 119.812 C 249.023 120.072,248.172 120.983,247.929 120.983 C 247.805 120.983,247.250 121.437,246.696 121.991 C 246.141 122.546,245.588 122.999,245.467 122.999 C 245.346 122.999,244.520 123.737,243.632 124.638 L 242.018 126.276 240.228 126.276 C 239.243 126.276,238.437 126.173,238.437 126.046 C 238.437 125.920,237.984 125.740,237.429 125.646 C 236.875 125.552,236.421 125.398,236.421 125.302 C 236.421 125.207,235.912 124.905,235.289 124.631 C 234.667 124.357,234.156 124.058,234.155 123.965 C 234.154 123.872,233.727 123.537,233.207 123.220 C 232.687 122.904,232.114 122.441,231.933 122.192 C 231.752 121.943,231.440 121.739,231.240 121.739 C 231.040 121.739,230.876 121.594,230.876 121.417 C 230.876 121.240,230.649 120.901,230.372 120.663 C 230.095 120.426,229.868 120.070,229.868 119.872 C 229.868 119.674,229.783 119.475,229.679 119.429 C 229.297 119.259,228.125 117.504,227.963 116.859 C 227.872 116.493,227.724 116.193,227.635 116.192 C 227.546 116.190,227.249 115.680,226.976 115.057 C 226.702 114.435,226.401 113.926,226.306 113.926 C 226.212 113.926,226.056 113.359,225.961 112.665 C 225.866 111.972,225.685 111.405,225.559 111.405 C 225.434 111.405,225.331 110.214,225.331 108.759 C 225.331 107.303,225.431 106.112,225.554 106.112 C 225.676 106.112,225.855 105.488,225.950 104.726 C 226.045 103.963,226.228 103.340,226.357 103.340 C 226.486 103.340,226.591 103.170,226.591 102.962 C 226.591 102.754,226.697 102.583,226.826 102.583 C 226.955 102.583,227.139 102.337,227.235 102.036 C 227.432 101.417,227.574 101.225,228.990 99.685 C 229.982 98.605,230.045 98.579,232.015 98.408 C 233.121 98.312,234.197 98.138,234.405 98.022 C 234.956 97.713,248.201 97.736,248.393 98.047 " stroke="none" fill="#542c14" fill-rule="evenodd"></path><path id="path1" d="M12.995 7.042 C 12.486 7.604,11.873 9.199,11.857 10.004 C 11.851 10.308,11.744 10.619,11.619 10.697 C 11.494 10.774,11.313 11.518,11.216 12.350 C 11.120 13.182,10.919 13.863,10.771 13.863 C 10.623 13.863,10.568 13.928,10.648 14.009 C 10.729 14.089,10.578 14.939,10.312 15.896 C 10.047 16.854,9.830 17.867,9.830 18.148 C 9.830 18.429,9.722 18.855,9.589 19.096 C 9.345 19.541,9.010 21.150,8.503 24.323 C 8.348 25.293,8.108 26.164,7.969 26.258 C 7.621 26.493,7.631 36.275,7.979 36.502 C 8.123 36.596,8.315 37.404,8.406 38.297 C 8.498 39.190,8.669 39.984,8.787 40.062 C 8.905 40.139,9.082 40.641,9.181 41.178 C 9.279 41.715,9.457 42.339,9.576 42.564 C 9.695 42.790,9.981 43.484,10.212 44.108 C 10.443 44.731,10.710 45.298,10.806 45.368 C 10.902 45.438,11.352 46.260,11.807 47.196 C 12.262 48.132,12.726 48.897,12.839 48.897 C 12.951 48.897,13.107 49.209,13.184 49.590 C 13.263 49.981,14.047 51.019,14.980 51.968 C 15.890 52.895,16.635 53.725,16.635 53.814 C 16.635 54.105,17.435 54.782,18.366 55.278 C 18.870 55.546,19.338 55.837,19.408 55.923 C 19.628 56.198,21.199 56.963,21.544 56.963 C 21.725 56.963,21.944 57.145,22.030 57.368 C 22.230 57.889,29.504 57.806,30.033 57.276 C 30.205 57.104,30.511 56.963,30.712 56.963 C 32.913 56.963,34.230 55.126,33.221 53.464 C 30.197 48.484,26.598 43.603,23.164 39.821 C 20.520 36.910,20.443 36.799,21.064 36.799 C 23.248 36.799,29.747 43.768,34.280 50.972 C 36.040 53.769,36.406 53.903,37.918 52.302 C 38.534 51.650,39.110 50.787,39.199 50.385 C 39.287 49.983,39.451 49.653,39.562 49.653 C 39.674 49.653,39.838 49.455,39.926 49.212 C 40.015 48.970,40.275 48.431,40.504 48.015 C 41.017 47.082,41.308 41.504,40.859 41.226 C 40.705 41.132,40.580 40.777,40.580 40.439 C 40.580 40.100,40.474 39.824,40.346 39.824 C 40.217 39.824,40.034 39.200,39.939 38.437 C 39.843 37.675,39.665 37.051,39.542 37.051 C 39.420 37.051,39.319 36.796,39.318 36.484 C 39.318 36.172,38.978 35.406,38.563 34.783 C 38.149 34.159,37.809 33.507,37.808 33.333 C 37.808 33.160,37.706 33.018,37.582 33.018 C 37.459 33.018,37.287 32.735,37.200 32.388 C 37.113 32.042,36.930 31.758,36.794 31.758 C 36.658 31.758,36.545 31.616,36.543 31.443 C 36.541 31.270,36.198 30.731,35.781 30.246 C 35.363 29.761,34.600 28.867,34.083 28.261 C 32.395 26.278,30.645 24.701,30.132 24.701 C 29.984 24.701,29.732 24.491,29.572 24.234 C 29.318 23.829,27.941 22.989,26.026 22.073 C 25.715 21.924,25.460 21.717,25.459 21.613 C 25.458 21.509,25.230 21.424,24.953 21.424 C 24.675 21.424,24.449 21.320,24.449 21.192 C 24.449 21.064,24.108 20.885,23.693 20.794 C 23.277 20.703,22.936 20.532,22.936 20.416 C 22.936 20.299,22.596 20.129,22.180 20.038 C 21.764 19.946,21.424 19.794,21.424 19.699 C 21.424 19.603,20.800 19.152,20.038 18.696 C 19.275 18.240,18.652 17.755,18.652 17.619 C 18.652 17.482,18.536 17.233,18.395 17.066 C 17.184 15.632,16.883 15.174,16.749 14.564 C 16.664 14.178,16.492 13.863,16.366 13.863 C 16.240 13.863,16.064 13.409,15.976 12.854 C 15.887 12.300,15.731 11.846,15.628 11.846 C 15.463 11.846,15.139 10.677,14.701 8.507 C 14.624 8.125,14.461 7.813,14.338 7.813 C 14.215 7.813,14.115 7.657,14.115 7.466 C 14.115 6.766,13.466 6.520,12.995 7.042 M63.264 19.086 C 62.779 19.324,62.232 19.664,62.049 19.841 C 61.866 20.019,61.554 20.164,61.356 20.164 C 61.158 20.164,60.996 20.277,60.996 20.416 C 60.996 20.555,60.841 20.668,60.652 20.668 C 60.463 20.668,59.924 21.006,59.454 21.420 C 58.985 21.834,58.487 22.174,58.347 22.176 C 58.206 22.178,57.786 22.464,57.412 22.810 C 57.039 23.157,56.658 23.440,56.566 23.440 C 56.475 23.440,55.959 23.894,55.421 24.449 C 54.883 25.003,54.381 25.457,54.306 25.457 C 53.976 25.457,48.645 30.720,48.645 31.046 C 48.645 31.151,48.333 31.577,47.952 31.993 C 47.060 32.966,46.370 33.902,45.616 35.161 C 45.284 35.715,44.922 36.207,44.812 36.253 C 44.702 36.299,44.612 36.485,44.612 36.665 C 44.612 36.846,44.443 37.318,44.236 37.715 C 44.029 38.112,43.859 38.629,43.858 38.864 C 43.857 39.098,43.743 39.360,43.604 39.445 C 43.293 39.638,43.267 43.522,43.576 43.713 C 43.700 43.789,43.877 44.156,43.970 44.528 C 44.168 45.314,45.479 46.563,46.348 46.794 C 46.867 46.931,47.336 46.555,49.731 44.085 C 53.549 40.149,53.685 40.914,50.013 45.666 C 48.212 47.998,48.471 48.884,50.956 48.894 C 51.464 48.896,51.924 49.030,51.978 49.192 C 52.097 49.548,57.486 49.526,57.708 49.168 C 57.786 49.041,58.143 48.864,58.502 48.774 C 59.128 48.617,59.334 48.444,60.916 46.752 C 61.660 45.957,62.106 45.163,62.400 44.108 C 62.497 43.762,62.649 43.422,62.738 43.352 C 63.049 43.111,63.770 38.932,63.769 37.381 C 63.769 36.523,63.873 35.756,64.001 35.677 C 64.129 35.598,64.241 33.918,64.250 31.944 C 64.269 27.600,64.516 23.659,64.791 23.310 C 64.902 23.169,65.029 22.091,65.074 20.915 C 65.166 18.477,64.950 18.259,63.264 19.086 M306.868 163.579 C 306.783 163.718,306.266 163.831,305.719 163.831 C 305.173 163.831,304.726 163.924,304.726 164.037 C 304.726 164.150,303.960 164.368,303.025 164.522 C 299.968 165.026,298.303 165.395,298.059 165.623 C 297.928 165.747,297.559 165.848,297.240 165.848 C 296.921 165.848,296.660 165.950,296.660 166.075 C 296.660 166.200,295.980 166.381,295.148 166.478 C 294.316 166.574,293.578 166.746,293.508 166.859 C 293.438 166.971,292.928 167.140,292.374 167.234 C 291.820 167.328,291.367 167.508,291.367 167.634 C 291.367 167.760,291.112 167.864,290.800 167.865 C 290.488 167.866,289.692 168.141,289.030 168.476 C 288.369 168.812,287.490 169.161,287.077 169.251 C 286.664 169.342,286.326 169.508,286.326 169.620 C 286.326 169.732,285.929 169.899,285.444 169.990 C 284.959 170.081,284.562 170.263,284.562 170.396 C 284.562 170.528,284.392 170.636,284.184 170.636 C 283.976 170.636,283.806 170.735,283.806 170.856 C 283.806 170.977,283.352 171.149,282.798 171.237 C 282.243 171.326,281.790 171.502,281.790 171.628 C 281.790 171.754,281.449 171.931,281.033 172.023 C 280.618 172.114,280.277 172.293,280.277 172.421 C 280.277 172.548,280.107 172.653,279.899 172.653 C 279.691 172.653,279.521 172.754,279.521 172.878 C 279.521 173.001,279.238 173.173,278.891 173.260 C 278.544 173.347,278.261 173.530,278.261 173.666 C 278.261 173.802,278.117 173.913,277.941 173.913 C 277.765 173.913,276.999 174.252,276.239 174.666 C 275.480 175.080,274.461 175.618,273.976 175.863 C 273.491 176.107,273.037 176.364,272.968 176.434 C 272.899 176.503,272.417 176.776,271.897 177.040 C 271.377 177.305,270.951 177.604,270.951 177.706 C 270.951 177.808,270.658 177.965,270.300 178.055 C 269.942 178.145,269.414 178.437,269.127 178.703 C 268.841 178.970,268.510 179.129,268.393 179.056 C 268.275 178.984,268.179 179.044,268.179 179.191 C 268.179 179.338,268.009 179.458,267.801 179.458 C 267.593 179.458,267.423 179.569,267.423 179.705 C 267.423 179.841,267.139 180.024,266.793 180.111 C 266.446 180.198,266.163 180.365,266.163 180.482 C 266.163 180.599,265.737 180.892,265.217 181.133 C 263.936 181.728,262.770 182.993,262.252 184.348 C 261.742 185.682,261.793 189.554,262.323 189.730 C 262.494 189.787,262.635 189.966,262.636 190.128 C 262.637 190.385,263.668 191.526,264.935 192.672 C 265.161 192.877,265.643 193.118,266.006 193.210 C 266.369 193.301,266.667 193.451,266.667 193.544 C 266.667 193.636,267.176 193.936,267.798 194.209 C 268.421 194.483,268.931 194.782,268.933 194.874 C 268.934 194.966,269.389 195.117,269.943 195.211 C 270.498 195.305,270.951 195.485,270.951 195.611 C 270.951 195.738,271.207 195.845,271.519 195.849 C 271.830 195.854,272.306 196.024,272.575 196.227 C 272.844 196.431,273.326 196.597,273.646 196.597 C 273.966 196.597,274.228 196.696,274.228 196.817 C 274.228 196.938,274.682 197.110,275.236 197.198 C 275.791 197.287,276.244 197.472,276.244 197.609 C 276.244 197.746,276.500 197.861,276.812 197.866 C 277.124 197.870,277.599 198.040,277.868 198.244 C 278.137 198.447,278.619 198.614,278.939 198.614 C 279.259 198.614,279.521 198.718,279.521 198.846 C 279.521 198.973,279.869 199.154,280.294 199.248 C 280.719 199.341,281.372 199.576,281.744 199.770 C 282.115 199.964,282.552 200.124,282.714 200.124 C 282.875 200.125,283.046 200.211,283.092 200.315 C 283.207 200.574,284.997 201.386,285.453 201.386 C 285.656 201.386,285.822 201.491,285.822 201.618 C 285.822 201.746,286.163 201.925,286.578 202.016 C 286.994 202.108,287.335 202.260,287.335 202.355 C 287.335 202.543,289.198 203.403,289.605 203.403 C 289.742 203.403,289.855 203.514,289.855 203.650 C 289.855 203.786,290.139 203.968,290.485 204.055 C 290.832 204.142,291.115 204.315,291.115 204.438 C 291.115 204.562,291.280 204.663,291.481 204.663 C 291.682 204.663,291.937 204.815,292.048 205.001 C 292.159 205.187,292.590 205.553,293.006 205.814 C 293.422 206.075,293.853 206.434,293.963 206.610 C 294.074 206.787,294.277 206.931,294.414 206.931 C 294.551 206.931,295.097 207.357,295.628 207.876 C 296.158 208.396,296.919 209.117,297.319 209.478 C 298.585 210.619,300.498 212.831,300.785 213.485 C 300.937 213.831,301.120 214.171,301.192 214.241 C 303.046 216.022,302.444 217.360,299.685 217.596 C 295.947 217.915,285.410 217.656,284.900 217.232 C 284.672 217.042,284.445 216.923,284.396 216.967 C 284.207 217.138,280.259 216.683,280.131 216.476 C 280.056 216.356,279.669 216.257,279.269 216.257 C 278.870 216.257,278.479 216.154,278.401 216.029 C 278.324 215.903,277.693 215.722,277.000 215.627 C 276.307 215.532,275.740 215.365,275.740 215.257 C 275.740 215.150,275.296 214.990,274.753 214.903 C 274.210 214.817,273.728 214.660,273.682 214.556 C 273.567 214.297,271.777 213.485,271.321 213.485 C 271.118 213.485,270.951 213.372,270.951 213.235 C 270.951 213.099,270.498 212.914,269.943 212.825 C 269.389 212.737,268.935 212.565,268.935 212.444 C 268.935 212.323,268.722 212.224,268.462 212.224 C 268.201 212.224,267.581 212.054,267.084 211.846 C 266.374 211.550,265.003 211.468,260.728 211.468 C 254.461 211.468,253.812 211.627,253.812 213.161 C 253.812 213.616,253.699 213.989,253.560 213.989 C 253.422 213.989,253.326 214.074,253.348 214.178 C 253.444 214.624,252.974 217.517,252.807 217.517 C 252.705 217.517,252.556 218.161,252.475 218.947 C 252.325 220.403,252.976 222.558,253.566 222.558 C 253.702 222.558,253.812 222.676,253.812 222.821 C 253.812 223.138,254.199 223.624,255.171 224.527 C 255.572 224.900,256.356 225.687,256.913 226.276 C 257.471 226.865,258.022 227.347,258.138 227.347 C 258.254 227.347,258.803 227.801,259.357 228.355 C 259.912 228.910,260.484 229.364,260.630 229.364 C 260.775 229.364,261.156 229.647,261.478 229.994 C 261.799 230.340,262.190 230.624,262.348 230.624 C 262.505 230.624,262.634 230.735,262.634 230.871 C 262.634 231.007,262.917 231.189,263.264 231.276 C 263.611 231.363,263.894 231.528,263.894 231.642 C 263.894 231.757,264.149 231.930,264.461 232.027 C 264.773 232.124,265.085 232.274,265.154 232.359 C 265.442 232.713,266.907 233.396,267.378 233.396 C 267.657 233.396,267.925 233.517,267.974 233.665 C 268.024 233.812,268.543 233.997,269.130 234.076 C 269.716 234.155,270.195 234.317,270.195 234.438 C 270.195 234.558,270.456 234.657,270.775 234.657 C 271.094 234.657,271.464 234.766,271.598 234.899 C 271.731 235.033,272.519 235.220,273.349 235.316 C 274.179 235.411,274.926 235.592,275.009 235.719 C 275.092 235.845,277.048 236.016,279.357 236.097 C 281.665 236.179,283.554 236.342,283.554 236.460 C 283.554 236.738,286.256 236.738,286.428 236.460 C 286.500 236.344,288.347 236.171,290.532 236.077 C 292.717 235.982,294.615 235.795,294.751 235.659 C 294.886 235.524,295.343 235.413,295.766 235.414 C 296.596 235.415,299.002 234.651,299.139 234.342 C 299.185 234.238,299.455 234.152,299.738 234.152 C 300.231 234.152,303.456 232.706,303.718 232.367 C 303.787 232.277,304.127 232.116,304.474 232.008 C 304.820 231.900,305.455 231.544,305.884 231.218 C 306.313 230.891,306.795 230.624,306.955 230.624 C 307.115 230.624,307.246 230.513,307.246 230.377 C 307.246 230.241,307.530 230.058,307.876 229.971 C 308.223 229.884,308.507 229.712,308.507 229.588 C 308.507 229.465,308.669 229.364,308.867 229.364 C 309.065 229.364,309.377 229.215,309.560 229.034 C 309.743 228.853,310.290 228.485,310.775 228.215 C 311.260 227.946,311.714 227.660,311.783 227.580 C 311.853 227.501,312.301 227.217,312.781 226.950 C 313.260 226.683,313.884 226.226,314.167 225.933 C 314.450 225.640,314.937 225.321,315.249 225.223 C 315.561 225.125,315.816 224.952,315.816 224.839 C 315.816 224.726,316.014 224.567,316.257 224.485 C 316.885 224.275,317.672 223.746,317.908 223.377 C 318.019 223.204,318.222 223.062,318.360 223.062 C 318.660 223.062,319.187 222.646,319.929 221.822 C 320.232 221.486,320.654 221.028,320.868 220.803 C 321.921 219.696,322.612 212.102,321.712 211.522 C 321.559 211.423,321.356 210.917,321.260 210.397 C 321.164 209.877,320.978 209.452,320.846 209.452 C 320.713 209.452,320.605 209.282,320.605 209.074 C 320.605 208.866,320.504 208.696,320.380 208.696 C 320.257 208.696,320.084 208.412,319.997 208.066 C 319.910 207.719,319.728 207.435,319.592 207.435 C 319.456 207.435,319.345 207.284,319.345 207.099 C 319.345 206.914,319.004 206.459,318.589 206.089 C 318.173 205.718,317.832 205.308,317.832 205.177 C 317.832 204.873,314.402 201.386,314.103 201.386 C 313.978 201.386,313.479 201.018,312.993 200.567 C 311.542 199.222,310.431 198.362,310.146 198.362 C 309.999 198.362,309.715 198.135,309.515 197.858 C 309.315 197.580,309.012 197.353,308.842 197.353 C 308.671 197.353,308.441 197.212,308.330 197.038 C 308.219 196.865,307.703 196.507,307.183 196.243 C 306.664 195.978,306.238 195.666,306.238 195.549 C 306.238 195.433,306.085 195.337,305.899 195.337 C 305.712 195.337,305.298 195.110,304.978 194.833 C 304.658 194.556,304.244 194.329,304.057 194.329 C 303.870 194.329,303.718 194.242,303.718 194.137 C 303.718 193.944,302.971 193.489,302.142 193.176 C 301.900 193.085,301.701 192.910,301.701 192.787 C 301.701 192.665,301.579 192.565,301.429 192.565 C 301.279 192.565,300.518 192.139,299.737 191.619 C 298.137 190.554,297.567 190.206,296.660 189.741 C 296.314 189.563,295.839 189.247,295.606 189.038 C 295.372 188.829,294.635 188.374,293.967 188.028 C 293.300 187.681,292.697 187.332,292.628 187.253 C 292.558 187.173,292.133 186.893,291.682 186.631 C 291.232 186.369,290.863 186.066,290.863 185.957 C 290.863 185.848,290.751 185.759,290.614 185.759 C 290.476 185.759,289.619 185.249,288.707 184.625 C 287.796 184.001,286.944 183.491,286.815 183.491 C 286.685 183.491,286.578 183.380,286.578 183.244 C 286.578 183.108,286.295 182.925,285.948 182.838 C 285.602 182.751,285.318 182.628,285.318 182.563 C 285.318 182.279,286.070 181.737,286.674 181.586 C 287.037 181.494,287.335 181.329,287.335 181.219 C 287.335 181.108,287.902 180.940,288.595 180.844 C 289.288 180.749,289.918 180.568,289.996 180.443 C 290.073 180.317,290.464 180.214,290.863 180.214 C 291.263 180.214,291.654 180.110,291.732 179.984 C 291.811 179.857,292.725 179.673,293.763 179.576 C 294.802 179.479,295.652 179.309,295.652 179.200 C 295.652 179.091,296.219 178.923,296.912 178.828 C 297.606 178.733,298.173 178.552,298.173 178.426 C 298.173 178.301,298.314 178.197,298.488 178.196 C 298.829 178.194,299.433 177.078,299.433 176.446 C 299.434 176.139,299.793 176.042,301.124 175.991 C 302.053 175.955,302.926 175.814,303.064 175.676 C 303.202 175.538,303.745 175.425,304.272 175.425 C 304.799 175.425,305.230 175.325,305.230 175.203 C 305.230 175.081,306.307 174.900,307.624 174.802 C 308.941 174.703,310.019 174.531,310.019 174.420 C 310.019 174.309,310.908 174.139,311.994 174.043 C 314.094 173.857,314.765 173.444,315.482 171.897 C 316.238 170.266,316.590 167.556,316.086 167.245 C 315.937 167.153,315.816 166.868,315.816 166.610 C 315.816 166.043,314.211 164.335,313.678 164.335 C 313.468 164.335,313.296 164.248,313.296 164.140 C 313.296 163.534,307.224 163.003,306.868 163.579 M378.072 163.579 C 377.864 163.713,377.268 163.825,376.749 163.827 C 376.229 163.829,375.803 163.933,375.803 164.058 C 375.803 164.183,375.095 164.366,374.228 164.465 C 373.362 164.563,372.539 164.732,372.401 164.839 C 372.262 164.947,371.553 165.115,370.825 165.213 C 370.098 165.311,369.502 165.493,369.502 165.619 C 369.502 165.745,369.105 165.848,368.620 165.848 C 368.135 165.848,367.738 165.948,367.738 166.071 C 367.738 166.193,367.114 166.371,366.352 166.467 C 365.589 166.562,364.965 166.738,364.965 166.858 C 364.965 166.979,364.455 167.153,363.831 167.247 C 363.207 167.340,362.697 167.518,362.697 167.640 C 362.697 167.763,362.498 167.863,362.256 167.863 C 361.652 167.861,359.420 168.677,359.420 168.900 C 359.420 168.999,358.967 169.156,358.412 169.250 C 357.858 169.344,357.404 169.515,357.404 169.630 C 357.404 169.746,357.064 169.915,356.648 170.006 C 356.232 170.098,355.892 170.249,355.892 170.343 C 355.892 170.437,355.523 170.670,355.072 170.861 C 352.550 171.932,351.103 172.663,351.103 172.869 C 351.103 172.996,350.706 173.175,350.221 173.266 C 349.735 173.357,349.338 173.531,349.338 173.652 C 349.338 173.774,348.998 173.948,348.582 174.039 C 348.166 174.130,347.826 174.297,347.826 174.410 C 347.826 174.522,347.569 174.679,347.254 174.758 C 346.939 174.837,346.439 175.128,346.141 175.405 C 345.844 175.682,345.307 175.983,344.949 176.073 C 344.591 176.163,344.297 176.325,344.297 176.434 C 344.297 176.542,344.014 176.702,343.667 176.789 C 343.321 176.876,343.037 177.058,343.037 177.194 C 343.037 177.330,342.867 177.442,342.659 177.442 C 342.451 177.442,342.281 177.555,342.281 177.694 C 342.281 177.832,342.119 177.946,341.921 177.946 C 341.723 177.946,341.406 178.101,341.216 178.291 C 341.026 178.480,340.593 178.723,340.253 178.831 C 339.913 178.938,339.458 179.229,339.242 179.477 C 339.025 179.725,338.543 180.005,338.170 180.099 C 337.797 180.192,337.492 180.362,337.492 180.477 C 337.492 180.591,337.246 180.763,336.944 180.858 C 336.349 181.047,336.115 181.215,334.859 182.357 C 333.909 183.221,333.459 183.984,333.459 184.735 C 333.459 185.021,333.346 185.255,333.207 185.255 C 332.894 185.255,332.867 188.700,333.179 188.893 C 333.303 188.969,333.477 189.325,333.567 189.683 C 333.808 190.642,336.691 193.321,337.482 193.321 C 337.626 193.321,337.744 193.407,337.744 193.513 C 337.744 193.716,339.584 194.581,340.014 194.581 C 340.152 194.581,340.265 194.684,340.265 194.811 C 340.265 194.937,340.718 195.117,341.273 195.211 C 341.827 195.305,342.281 195.457,342.281 195.548 C 342.281 195.640,342.990 195.939,343.856 196.212 C 344.723 196.485,345.715 196.853,346.062 197.029 C 346.408 197.206,346.947 197.351,347.259 197.352 C 347.571 197.353,347.826 197.448,347.826 197.565 C 347.826 197.681,348.450 197.988,349.212 198.247 C 349.975 198.506,350.599 198.807,350.599 198.915 C 350.599 199.023,351.052 199.184,351.607 199.273 C 352.161 199.362,352.615 199.528,352.615 199.643 C 352.615 199.757,353.012 199.926,353.497 200.017 C 353.982 200.108,354.379 200.255,354.379 200.345 C 354.379 200.434,354.748 200.664,355.198 200.856 C 355.649 201.049,356.493 201.417,357.075 201.674 C 357.657 201.932,358.252 202.142,358.398 202.142 C 358.545 202.142,358.665 202.227,358.667 202.331 C 358.669 202.435,359.151 202.746,359.738 203.021 C 360.326 203.296,360.863 203.579,360.933 203.651 C 361.002 203.722,361.597 204.062,362.256 204.406 C 362.914 204.749,363.453 205.118,363.453 205.225 C 363.453 205.332,363.575 205.419,363.724 205.419 C 363.874 205.419,364.336 205.759,364.752 206.175 C 365.168 206.591,365.610 206.931,365.735 206.931 C 366.033 206.931,371.519 212.419,371.519 212.716 C 371.519 212.842,371.661 213.094,371.835 213.278 C 372.921 214.420,373.653 216.679,373.112 217.220 C 372.585 217.747,356.761 217.875,356.119 217.359 C 355.925 217.202,354.887 216.994,353.814 216.896 C 352.740 216.798,351.798 216.615,351.720 216.488 C 351.641 216.361,351.193 216.257,350.725 216.257 C 350.256 216.257,349.811 216.159,349.737 216.038 C 349.663 215.918,349.037 215.744,348.346 215.653 C 347.656 215.561,347.023 215.376,346.939 215.242 C 346.856 215.107,346.593 214.997,346.355 214.997 C 346.117 214.997,345.266 214.657,344.464 214.241 C 343.663 213.825,342.844 213.485,342.644 213.485 C 342.444 213.485,342.281 213.381,342.281 213.255 C 342.281 213.128,341.827 212.948,341.273 212.854 C 340.718 212.761,340.265 212.581,340.265 212.454 C 340.265 212.328,340.052 212.224,339.791 212.224 C 339.531 212.224,338.911 212.054,338.413 211.846 C 337.700 211.548,336.311 211.468,331.866 211.468 C 325.160 211.468,325.075 211.500,324.754 214.145 C 324.656 214.960,324.507 215.740,324.424 215.879 C 324.201 216.253,324.142 216.669,323.966 219.100 L 323.806 221.312 324.655 222.495 C 325.633 223.856,327.820 226.070,329.443 227.340 C 330.058 227.822,330.768 228.474,331.020 228.790 C 331.273 229.105,331.632 229.364,331.818 229.364 C 332.005 229.364,332.195 229.449,332.241 229.554 C 332.385 229.880,334.399 231.380,334.693 231.380 C 334.846 231.380,334.972 231.481,334.972 231.605 C 334.972 231.728,335.255 231.901,335.602 231.988 C 335.948 232.075,336.232 232.239,336.232 232.352 C 336.232 232.465,336.856 232.770,337.618 233.030 C 338.381 233.289,339.004 233.580,339.004 233.677 C 339.004 233.774,339.572 233.931,340.265 234.026 C 340.958 234.122,341.525 234.303,341.525 234.428 C 341.525 234.554,341.786 234.657,342.105 234.657 C 342.423 234.657,342.794 234.766,342.927 234.899 C 343.061 235.033,343.849 235.220,344.679 235.316 C 345.509 235.411,346.257 235.595,346.343 235.725 C 346.428 235.856,348.331 236.026,350.573 236.103 C 352.815 236.181,354.708 236.341,354.781 236.459 C 354.953 236.738,357.656 236.739,357.656 236.460 C 357.656 236.343,359.386 236.177,361.500 236.091 C 363.614 236.005,365.684 235.828,366.100 235.697 C 366.515 235.567,367.645 235.276,368.609 235.051 C 369.574 234.827,370.425 234.543,370.500 234.421 C 370.576 234.299,371.063 234.119,371.582 234.022 C 372.102 233.924,372.528 233.772,372.529 233.683 C 372.530 233.595,373.041 233.298,373.663 233.025 C 374.286 232.751,374.795 232.452,374.795 232.360 C 374.795 232.268,375.192 232.118,375.677 232.027 C 376.163 231.936,376.560 231.771,376.560 231.661 C 376.560 231.551,377.012 231.244,377.565 230.979 C 378.118 230.715,378.571 230.413,378.573 230.309 C 378.575 230.205,378.738 230.120,378.936 230.120 C 379.134 230.120,379.451 229.978,379.640 229.805 C 380.085 229.397,380.839 228.916,381.474 228.636 C 381.752 228.513,382.195 228.173,382.459 227.880 C 382.723 227.587,383.152 227.347,383.412 227.347 C 383.672 227.347,383.950 227.177,384.030 226.969 C 384.110 226.761,384.333 226.591,384.526 226.591 C 384.719 226.591,384.877 226.485,384.877 226.356 C 384.877 226.227,385.124 226.043,385.425 225.947 C 386.008 225.762,386.041 225.740,387.398 224.620 C 387.883 224.220,388.776 223.582,389.383 223.202 C 390.878 222.266,392.662 220.389,392.833 219.572 C 392.910 219.204,393.080 218.707,393.210 218.466 C 393.532 217.870,393.519 212.728,393.195 212.728 C 393.056 212.728,392.943 212.377,392.943 211.948 C 392.943 211.246,392.326 209.779,391.891 209.449 C 391.798 209.379,391.644 209.010,391.549 208.630 C 391.454 208.250,391.282 207.940,391.168 207.940 C 391.054 207.940,390.880 207.684,390.782 207.372 C 390.684 207.060,390.336 206.556,390.009 206.250 C 389.682 205.945,389.414 205.613,389.414 205.513 C 389.414 205.255,385.216 201.134,384.953 201.134 C 384.834 201.134,384.570 200.902,384.366 200.618 C 384.162 200.335,383.598 199.869,383.113 199.584 C 382.628 199.299,382.140 198.907,382.029 198.714 C 381.918 198.520,381.688 198.362,381.518 198.362 C 381.347 198.362,381.044 198.135,380.844 197.858 C 380.645 197.580,380.344 197.353,380.177 197.353 C 380.009 197.353,379.722 197.205,379.539 197.024 C 379.356 196.843,378.811 196.475,378.328 196.205 C 377.846 195.936,377.299 195.573,377.113 195.400 C 376.928 195.227,376.626 195.085,376.442 195.085 C 376.259 195.085,376.044 194.915,375.964 194.707 C 375.885 194.499,375.697 194.329,375.547 194.329 C 375.397 194.329,374.628 193.904,373.838 193.384 C 373.047 192.864,371.975 192.214,371.455 191.940 C 370.936 191.666,370.510 191.354,370.510 191.247 C 370.510 191.140,370.340 191.052,370.132 191.052 C 369.924 191.052,369.754 190.939,369.754 190.800 C 369.754 190.662,369.592 190.548,369.394 190.548 C 369.196 190.548,368.879 190.393,368.689 190.203 C 368.500 190.014,368.095 189.779,367.789 189.682 C 367.484 189.585,367.234 189.400,367.234 189.271 C 367.234 189.142,367.064 189.036,366.856 189.036 C 366.648 189.036,366.478 188.935,366.478 188.811 C 366.478 188.688,366.194 188.515,365.848 188.428 C 365.501 188.341,365.217 188.159,365.217 188.023 C 365.217 187.887,365.110 187.776,364.978 187.776 C 364.732 187.776,362.419 186.297,362.193 185.995 C 362.124 185.903,361.812 185.748,361.500 185.650 C 361.188 185.553,360.933 185.380,360.933 185.266 C 360.933 185.151,360.649 184.987,360.302 184.900 C 359.956 184.813,359.672 184.630,359.672 184.494 C 359.672 184.358,359.512 184.247,359.315 184.247 C 359.119 184.247,358.920 184.162,358.874 184.058 C 358.747 183.771,357.208 182.735,356.910 182.735 C 356.162 182.735,356.870 181.805,357.785 181.586 C 358.199 181.486,358.652 181.320,358.790 181.216 C 358.929 181.112,359.524 180.948,360.112 180.851 C 360.701 180.754,361.246 180.571,361.324 180.444 C 361.402 180.318,361.800 180.214,362.208 180.214 C 362.615 180.214,362.949 180.115,362.949 179.995 C 362.949 179.874,363.771 179.694,364.776 179.595 C 365.781 179.496,366.717 179.326,366.856 179.216 C 366.994 179.107,367.643 178.940,368.298 178.845 C 369.645 178.651,370.510 177.817,370.511 176.715 C 370.511 176.102,370.596 176.053,371.708 176.014 C 372.366 175.992,373.245 175.893,373.661 175.794 C 374.077 175.696,374.899 175.561,375.488 175.495 C 376.078 175.429,376.560 175.285,376.560 175.175 C 376.560 175.065,377.581 174.894,378.830 174.795 C 380.078 174.696,381.154 174.528,381.221 174.420 C 381.287 174.313,382.217 174.143,383.288 174.043 C 385.420 173.843,386.436 173.127,386.779 171.582 C 386.864 171.200,387.038 170.888,387.166 170.888 C 387.293 170.888,387.398 169.924,387.398 168.746 C 387.398 167.486,387.294 166.604,387.146 166.604 C 387.007 166.604,386.894 166.442,386.894 166.245 C 386.894 166.048,386.545 165.537,386.118 165.111 C 385.691 164.684,385.181 164.335,384.984 164.335 C 384.786 164.335,384.625 164.248,384.625 164.140 C 384.625 163.526,378.912 163.036,378.072 163.579 M80.907 175.170 C 80.699 175.306,80.224 175.419,79.851 175.421 C 79.478 175.424,79.110 175.527,79.033 175.652 C 78.956 175.776,78.099 175.958,77.128 176.055 C 76.157 176.153,75.362 176.335,75.362 176.459 C 75.362 176.584,74.980 176.686,74.512 176.686 C 74.044 176.686,73.179 176.856,72.590 177.064 C 72.000 177.272,71.145 177.442,70.689 177.442 C 70.233 177.442,69.802 177.583,69.731 177.757 C 69.632 178.003,69.556 178.005,69.386 177.765 C 68.893 177.071,66.020 176.615,63.264 176.792 C 61.808 176.886,60.421 176.964,60.181 176.966 C 59.942 176.968,59.680 177.076,59.599 177.206 C 59.519 177.336,59.063 177.442,58.586 177.442 C 58.109 177.442,57.719 177.555,57.719 177.694 C 57.719 177.832,57.464 177.946,57.152 177.947 C 56.840 177.948,55.791 178.238,54.820 178.592 C 53.850 178.946,52.858 179.299,52.615 179.376 C 52.372 179.454,52.174 179.603,52.174 179.707 C 52.174 179.812,51.720 179.970,51.166 180.059 C 50.611 180.148,50.158 180.320,50.158 180.442 C 50.158 180.564,49.847 180.742,49.467 180.837 C 49.087 180.932,48.718 181.086,48.648 181.179 C 48.577 181.272,48.066 181.575,47.511 181.852 C 46.957 182.129,46.353 182.497,46.170 182.671 C 45.987 182.845,45.675 182.987,45.477 182.987 C 45.279 182.987,45.117 183.100,45.117 183.239 C 45.117 183.377,44.886 183.491,44.605 183.491 C 44.323 183.491,44.027 183.661,43.947 183.869 C 43.868 184.077,43.644 184.247,43.451 184.247 C 43.258 184.247,43.100 184.348,43.100 184.472 C 43.100 184.595,42.817 184.768,42.470 184.855 C 42.124 184.942,41.840 185.124,41.840 185.260 C 41.840 185.396,41.678 185.507,41.480 185.507 C 41.282 185.507,40.965 185.649,40.776 185.822 C 40.364 186.200,39.588 186.707,39.067 186.939 C 38.859 187.032,38.599 187.258,38.488 187.442 C 38.377 187.625,38.162 187.776,38.010 187.776 C 37.858 187.776,37.268 188.152,36.699 188.612 C 36.130 189.072,35.098 189.830,34.405 190.296 C 33.711 190.762,32.895 191.407,32.589 191.728 C 32.284 192.050,31.940 192.313,31.825 192.313 C 31.321 192.313,24.701 198.491,24.701 198.961 C 24.701 199.059,24.417 199.446,24.071 199.819 C 23.724 200.193,23.440 200.642,23.440 200.817 C 23.440 200.991,23.327 201.134,23.188 201.134 C 23.050 201.134,22.936 201.290,22.936 201.481 C 22.936 201.672,22.777 201.961,22.583 202.122 C 22.389 202.283,22.153 202.721,22.059 203.095 C 21.965 203.470,21.812 203.834,21.719 203.904 C 21.356 204.181,20.668 205.650,20.668 206.151 C 20.668 206.442,20.568 206.679,20.445 206.679 C 20.322 206.679,20.144 207.303,20.049 208.066 C 19.953 208.828,19.770 209.452,19.642 209.452 C 19.513 209.452,19.408 209.830,19.408 210.292 C 19.408 210.754,19.329 211.211,19.232 211.307 C 19.005 211.535,18.915 212.007,18.732 213.926 C 18.650 214.792,18.504 215.501,18.407 215.501 C 18.310 215.501,18.222 215.643,18.211 215.816 C 18.200 215.989,18.107 217.520,18.004 219.219 C 17.902 220.917,17.722 222.306,17.605 222.306 C 17.317 222.306,17.331 227.532,17.619 227.710 C 17.744 227.787,17.925 228.531,18.021 229.363 C 18.118 230.195,18.285 230.876,18.392 230.876 C 18.499 230.876,18.660 231.335,18.750 231.895 C 18.840 232.456,19.015 233.108,19.139 233.344 C 19.599 234.219,20.164 235.623,20.164 235.892 C 20.164 236.044,20.265 236.169,20.389 236.169 C 20.512 236.169,20.684 236.452,20.771 236.799 C 20.858 237.146,21.041 237.429,21.177 237.429 C 21.313 237.429,21.424 237.548,21.424 237.693 C 21.424 238.036,23.558 240.202,23.896 240.202 C 24.038 240.202,24.202 240.343,24.260 240.517 C 24.337 240.747,25.236 240.832,27.600 240.832 C 29.963 240.832,30.862 240.747,30.939 240.517 C 30.997 240.343,31.233 240.201,31.464 240.200 C 31.695 240.199,32.209 240.029,32.606 239.822 C 33.003 239.615,33.485 239.445,33.677 239.445 C 33.869 239.445,34.026 239.332,34.026 239.193 C 34.026 239.055,34.190 238.941,34.390 238.941 C 34.803 238.941,36.629 237.927,36.757 237.626 C 36.803 237.518,37.058 237.429,37.324 237.429 C 37.590 237.429,37.807 237.334,37.807 237.217 C 37.807 237.100,38.233 236.788,38.752 236.524 C 39.272 236.259,39.788 235.901,39.899 235.728 C 40.010 235.555,40.238 235.413,40.406 235.413 C 40.574 235.413,40.993 235.152,41.338 234.833 C 41.684 234.514,42.164 234.177,42.407 234.084 C 42.650 233.992,42.848 233.799,42.848 233.656 C 42.848 233.513,42.991 233.396,43.166 233.396 C 43.340 233.396,43.789 233.113,44.163 232.766 C 44.537 232.420,44.933 232.133,45.043 232.130 C 45.228 232.125,45.642 231.780,47.921 229.735 C 48.991 228.775,50.914 226.456,50.914 226.126 C 50.914 225.989,51.003 225.839,51.112 225.793 C 51.221 225.747,51.868 224.858,52.549 223.819 C 53.230 222.779,53.850 221.871,53.926 221.802 C 54.091 221.652,54.527 220.885,55.262 219.452 C 55.558 218.873,55.873 218.343,55.960 218.273 C 56.047 218.204,56.337 217.750,56.604 217.265 C 56.871 216.780,57.159 216.326,57.246 216.257 C 57.473 216.074,58.475 213.814,58.475 213.484 C 58.475 213.329,58.589 213.273,58.727 213.359 C 58.866 213.444,58.979 213.346,58.979 213.139 C 58.979 212.933,59.121 212.612,59.294 212.427 C 59.799 211.886,60.491 210.543,60.491 210.106 C 60.491 209.885,60.605 209.704,60.744 209.704 C 60.882 209.704,60.996 209.534,60.996 209.326 C 60.996 207.943,61.487 209.351,61.634 211.153 C 61.732 212.366,61.884 213.472,61.971 213.611 C 62.058 213.749,62.274 214.827,62.451 216.005 C 62.628 217.183,62.838 218.573,62.918 219.093 C 62.999 219.612,63.151 220.038,63.256 220.038 C 63.361 220.038,63.524 220.798,63.620 221.728 C 63.715 222.658,63.885 223.537,63.998 223.682 C 64.111 223.826,64.278 224.432,64.369 225.027 C 64.459 225.622,64.633 226.303,64.755 226.539 C 64.877 226.776,65.170 227.480,65.406 228.103 C 65.643 228.727,65.938 229.408,66.063 229.616 C 66.188 229.824,66.392 230.221,66.517 230.498 C 66.733 230.977,67.319 231.631,68.156 232.325 C 68.620 232.710,73.491 232.765,73.724 232.388 C 73.810 232.250,74.330 232.136,74.881 232.136 C 75.538 232.136,75.932 232.006,76.027 231.758 C 76.107 231.550,76.282 231.380,76.417 231.380 C 76.551 231.380,76.989 231.068,77.390 230.687 C 78.516 229.615,78.848 229.364,79.132 229.364 C 79.277 229.364,79.395 229.257,79.395 229.126 C 79.395 228.995,79.735 228.687,80.151 228.441 C 80.567 228.196,80.907 227.849,80.907 227.671 C 80.907 227.493,81.007 227.347,81.129 227.347 C 81.607 227.347,81.967 225.841,81.804 224.521 C 81.713 223.788,81.575 222.366,81.498 221.361 C 81.420 220.356,81.267 219.534,81.157 219.534 C 81.048 219.534,80.876 218.116,80.776 216.383 C 80.676 214.650,80.511 213.233,80.409 213.233 C 80.307 213.233,80.145 212.013,80.050 210.523 C 79.846 207.342,79.803 207.003,79.570 206.771 C 79.474 206.674,79.395 205.886,79.395 205.020 C 79.395 204.154,79.285 203.407,79.151 203.361 C 78.493 203.134,78.503 188.810,79.161 188.574 C 79.290 188.528,79.395 188.064,79.395 187.545 C 79.395 187.025,79.480 186.514,79.584 186.410 C 79.688 186.306,79.782 186.146,79.794 186.053 C 79.853 185.565,80.271 184.327,80.567 183.760 C 80.752 183.404,80.905 182.971,80.906 182.798 C 80.907 182.624,80.993 182.483,81.098 182.483 C 81.314 182.483,81.885 180.965,82.092 179.836 C 82.168 179.420,82.322 178.965,82.432 178.825 C 82.660 178.536,82.550 176.934,82.224 175.803 C 81.990 174.995,81.520 174.768,80.907 175.170 M233.081 175.354 C 232.146 175.406,231.380 175.545,231.380 175.662 C 231.380 175.780,230.358 175.957,229.110 176.056 C 227.861 176.154,226.785 176.323,226.719 176.430 C 226.653 176.538,225.747 176.705,224.706 176.803 C 223.665 176.901,222.750 177.084,222.671 177.211 C 222.593 177.338,222.082 177.442,221.535 177.442 C 220.989 177.442,220.542 177.542,220.542 177.665 C 220.542 177.787,219.918 177.966,219.156 178.061 C 218.393 178.156,217.769 178.329,217.769 178.446 C 217.769 178.562,217.316 178.734,216.761 178.828 C 216.207 178.922,215.753 179.102,215.753 179.228 C 215.753 179.355,215.533 179.458,215.264 179.458 C 214.995 179.458,214.712 179.559,214.636 179.682 C 214.560 179.804,214.100 179.980,213.613 180.071 C 213.127 180.162,212.728 180.335,212.728 180.456 C 212.728 180.576,212.275 180.751,211.720 180.844 C 211.166 180.938,210.712 181.118,210.712 181.245 C 210.712 181.371,210.531 181.474,210.310 181.474 C 209.951 181.474,208.517 182.157,208.192 182.483 C 208.122 182.552,207.502 182.892,206.813 183.239 C 206.124 183.585,205.338 184.066,205.067 184.307 C 204.796 184.548,204.348 184.817,204.071 184.905 C 203.507 185.084,203.548 185.055,201.638 186.640 C 199.155 188.701,198.650 189.159,198.632 189.365 C 198.622 189.476,198.274 189.930,197.859 190.373 C 197.444 190.816,197.103 191.320,197.103 191.493 C 197.102 191.667,197.016 191.809,196.912 191.810 C 196.667 191.812,195.841 193.263,195.841 193.690 C 195.841 193.871,195.672 194.344,195.465 194.741 C 195.258 195.138,195.087 195.832,195.087 196.282 C 195.086 196.733,194.966 197.101,194.820 197.101 C 194.518 197.101,194.530 201.577,194.833 201.764 C 194.935 201.827,195.099 202.589,195.197 203.458 C 195.295 204.326,195.466 205.151,195.577 205.291 C 195.687 205.431,195.855 206.081,195.950 206.736 C 196.045 207.392,196.229 207.994,196.360 208.075 C 196.490 208.155,196.597 208.555,196.597 208.963 C 196.597 209.370,196.696 209.704,196.817 209.704 C 196.938 209.704,197.110 210.158,197.198 210.712 C 197.287 211.267,197.472 211.720,197.609 211.720 C 197.746 211.720,197.858 211.938,197.858 212.204 C 197.858 212.722,198.615 214.311,198.929 214.451 C 199.033 214.497,199.118 214.680,199.118 214.858 C 199.118 215.035,199.628 216.208,200.252 217.463 C 200.876 218.719,201.386 219.859,201.386 219.997 C 201.386 220.135,201.471 220.286,201.575 220.332 C 201.739 220.405,202.101 221.044,203.273 223.333 C 203.410 223.600,203.609 223.819,203.714 223.819 C 203.820 223.819,203.907 223.981,203.907 224.179 C 203.907 224.377,204.049 224.693,204.222 224.882 C 204.675 225.377,205.159 226.146,205.325 226.637 C 205.404 226.870,205.628 227.121,205.822 227.196 C 206.016 227.270,206.175 227.496,206.175 227.696 C 206.175 227.897,206.265 228.099,206.375 228.145 C 206.485 228.192,206.834 228.655,207.152 229.175 C 207.469 229.694,207.833 230.120,207.960 230.120 C 208.087 230.120,208.192 230.275,208.192 230.464 C 208.192 230.830,213.851 236.673,214.205 236.673 C 214.320 236.673,214.744 236.957,215.147 237.305 C 215.549 237.652,216.101 238.007,216.371 238.094 C 216.642 238.181,217.019 238.407,217.209 238.597 C 217.398 238.786,217.772 238.941,218.039 238.941 C 218.307 238.941,218.526 239.055,218.526 239.193 C 218.526 239.332,218.752 239.445,219.030 239.445 C 219.307 239.445,219.534 239.552,219.534 239.682 C 219.534 239.812,220.072 239.990,220.731 240.077 C 221.389 240.165,222.165 240.351,222.454 240.491 C 223.400 240.951,228.409 240.442,229.994 239.725 C 231.685 238.960,232.370 238.689,232.615 238.689 C 232.768 238.689,232.892 238.576,232.892 238.437 C 232.892 238.299,233.036 238.185,233.211 238.185 C 233.387 238.185,233.925 237.967,234.408 237.700 C 234.891 237.433,236.214 236.740,237.348 236.160 C 238.482 235.580,239.616 234.919,239.868 234.690 C 240.121 234.462,240.628 234.082,240.994 233.847 C 242.119 233.126,244.486 230.834,244.486 230.467 C 244.486 230.276,244.602 230.120,244.743 230.120 C 244.883 230.120,245.183 229.694,245.408 229.175 C 245.633 228.655,245.931 227.978,246.072 227.671 C 246.249 227.283,246.242 227.010,246.048 226.776 C 245.894 226.591,245.690 225.949,245.594 225.348 L 245.420 224.256 243.654 224.404 C 242.683 224.485,241.769 224.670,241.625 224.815 C 241.480 224.960,241.114 225.079,240.812 225.079 C 240.510 225.079,240.122 225.249,239.950 225.457 C 239.777 225.665,239.423 225.835,239.163 225.835 C 238.902 225.835,238.689 225.939,238.689 226.067 C 238.689 226.195,238.321 226.379,237.870 226.477 C 237.420 226.574,236.970 226.782,236.871 226.938 C 236.624 227.327,229.919 227.329,229.670 226.940 C 229.571 226.785,229.206 226.572,228.859 226.465 C 228.513 226.358,228.173 226.201,228.103 226.116 C 228.034 226.031,227.552 225.745,227.032 225.480 C 226.512 225.216,226.087 224.904,226.087 224.787 C 226.087 224.670,225.955 224.575,225.794 224.575 C 225.087 224.575,220.290 219.085,220.290 218.275 C 220.290 218.151,220.064 217.892,219.788 217.698 C 219.511 217.505,219.214 216.988,219.126 216.550 C 219.038 216.112,218.876 215.753,218.766 215.753 C 218.656 215.753,218.491 215.413,218.399 214.997 C 218.308 214.581,218.129 214.241,218.001 214.241 C 217.874 214.241,217.769 213.964,217.769 213.625 C 217.769 213.287,217.671 212.949,217.550 212.875 C 217.429 212.800,217.078 212.028,216.769 211.158 C 216.460 210.289,216.115 209.351,216.001 209.074 C 215.887 208.796,215.734 208.218,215.661 207.789 L 215.529 207.008 218.728 206.845 C 220.488 206.755,222.580 206.681,223.377 206.680 C 224.175 206.680,224.827 206.566,224.827 206.427 C 224.827 206.289,225.207 206.175,225.672 206.175 C 226.542 206.175,230.442 203.886,232.007 202.457 C 232.197 202.284,232.411 202.142,232.484 202.142 C 232.556 202.142,233.119 201.802,233.735 201.386 C 234.352 200.970,234.969 200.630,235.107 200.630 C 235.246 200.630,235.424 200.460,235.504 200.252 C 235.584 200.044,235.774 199.874,235.926 199.874 C 236.078 199.874,236.564 199.618,237.005 199.306 C 238.242 198.431,238.777 198.108,239.256 197.947 C 239.499 197.865,239.698 197.724,239.698 197.633 C 239.698 197.543,240.123 197.245,240.643 196.972 C 241.163 196.699,241.645 196.412,241.714 196.334 C 241.783 196.256,242.294 195.921,242.848 195.589 C 243.403 195.257,243.913 194.914,243.982 194.827 C 244.052 194.740,244.477 194.455,244.928 194.193 C 245.378 193.931,245.747 193.627,245.747 193.518 C 245.747 193.410,245.899 193.321,246.086 193.321 C 246.273 193.321,246.687 193.094,247.007 192.817 C 247.327 192.539,247.692 192.313,247.820 192.313 C 247.947 192.313,248.199 192.171,248.380 191.997 C 248.561 191.824,248.978 191.512,249.306 191.304 C 250.400 190.611,252.275 188.591,252.442 187.927 C 252.533 187.567,252.708 187.272,252.831 187.272 C 252.955 187.272,253.056 186.421,253.056 185.381 C 253.056 184.289,252.950 183.491,252.804 183.491 C 252.665 183.491,252.552 183.196,252.552 182.836 C 252.552 181.423,249.951 177.946,248.894 177.946 C 248.688 177.946,248.519 177.832,248.519 177.694 C 248.519 177.555,248.349 177.442,248.141 177.442 C 247.933 177.442,247.763 177.330,247.763 177.193 C 247.763 177.056,247.309 176.871,246.755 176.782 C 246.200 176.694,245.747 176.535,245.747 176.431 C 245.747 176.326,244.981 176.158,244.045 176.059 C 243.110 175.959,242.287 175.792,242.218 175.687 C 242.067 175.461,235.491 175.221,233.081 175.354 M118.967 177.090 C 118.204 177.294,117.543 177.570,117.496 177.704 C 117.450 177.837,117.294 177.946,117.149 177.946 C 116.774 177.946,113.613 179.511,113.215 179.894 C 113.031 180.070,112.719 180.214,112.521 180.214 C 112.323 180.214,112.161 180.319,112.161 180.446 C 112.161 180.574,111.821 180.753,111.405 180.844 C 110.989 180.936,110.649 181.097,110.649 181.202 C 110.649 181.307,110.197 181.610,109.644 181.875 C 109.091 182.140,108.637 182.433,108.636 182.526 C 108.634 182.619,108.292 182.769,107.876 182.861 C 107.461 182.952,107.120 183.129,107.120 183.254 C 107.120 183.379,106.837 183.552,106.490 183.639 C 106.144 183.726,105.860 183.899,105.860 184.022 C 105.860 184.146,105.690 184.247,105.482 184.247 C 105.274 184.247,105.104 184.348,105.104 184.472 C 105.104 184.595,104.820 184.768,104.474 184.855 C 104.127 184.942,103.844 185.124,103.844 185.260 C 103.844 185.396,103.695 185.507,103.514 185.507 C 103.219 185.507,102.546 185.996,101.000 187.335 C 100.719 187.577,100.388 187.776,100.264 187.776 C 100.140 187.776,99.776 188.059,99.455 188.406 C 99.134 188.752,98.803 189.036,98.721 189.036 C 98.363 189.036,94.463 193.287,93.815 194.384 C 93.587 194.770,93.312 195.085,93.203 195.085 C 93.095 195.085,93.006 195.255,93.006 195.463 C 93.006 195.671,92.919 195.841,92.813 195.841 C 92.707 195.841,92.351 196.408,92.022 197.101 C 91.693 197.795,91.326 198.362,91.207 198.362 C 91.087 198.362,90.989 198.528,90.989 198.731 C 90.989 199.128,90.211 200.925,89.949 201.134 C 89.862 201.204,89.707 201.771,89.605 202.394 C 89.503 203.018,89.319 203.654,89.196 203.807 C 89.074 203.959,88.900 204.782,88.811 205.634 C 88.722 206.486,88.561 207.183,88.454 207.183 C 88.068 207.183,87.603 214.899,87.975 215.129 C 88.108 215.211,88.217 215.839,88.217 216.524 C 88.217 217.209,88.317 217.769,88.440 217.769 C 88.562 217.769,88.741 218.393,88.836 219.156 C 88.931 219.918,89.100 220.542,89.211 220.542 C 89.322 220.542,89.485 220.996,89.574 221.550 C 89.662 222.105,89.835 222.558,89.957 222.558 C 90.079 222.558,90.255 222.863,90.349 223.236 C 90.442 223.609,90.738 224.222,91.006 224.598 C 91.274 224.975,91.495 225.379,91.498 225.496 C 91.503 225.733,92.726 227.588,93.280 228.198 C 94.037 229.032,94.266 229.351,94.266 229.570 C 94.266 229.695,94.549 230.010,94.896 230.270 C 95.243 230.531,95.526 230.883,95.526 231.054 C 95.526 231.225,96.207 232.043,97.038 232.872 C 97.870 233.701,98.551 234.446,98.551 234.527 C 98.551 234.710,100.031 236.169,100.217 236.169 C 100.293 236.169,100.804 236.623,101.353 237.177 C 101.902 237.732,102.517 238.185,102.719 238.185 C 102.922 238.185,103.088 238.293,103.088 238.425 C 103.088 238.558,103.513 238.864,104.033 239.105 C 104.553 239.347,105.035 239.622,105.104 239.716 C 105.173 239.810,105.627 239.971,106.112 240.076 C 106.597 240.180,107.075 240.392,107.174 240.548 C 107.418 240.933,115.389 240.936,116.219 240.552 C 116.552 240.398,117.476 240.068,118.273 239.818 C 119.071 239.568,119.723 239.269,119.723 239.153 C 119.723 239.036,119.899 238.941,120.115 238.941 C 120.488 238.941,122.377 238.191,123.311 237.672 C 123.552 237.539,123.920 237.429,124.130 237.429 C 124.340 237.429,124.512 237.316,124.512 237.177 C 124.512 237.038,124.640 236.925,124.796 236.925 C 125.149 236.925,128.092 235.509,129.359 234.731 C 129.876 234.413,130.475 234.152,130.690 234.152 C 130.905 234.152,131.142 233.993,131.217 233.797 C 131.292 233.602,131.632 233.372,131.972 233.287 C 132.666 233.112,134.239 231.643,134.956 230.498 C 135.216 230.082,135.581 229.651,135.767 229.540 C 135.954 229.429,136.106 229.221,136.106 229.078 C 136.106 228.935,136.525 228.307,137.037 227.682 C 137.836 226.707,137.983 226.327,138.077 224.994 C 138.138 224.139,138.301 223.368,138.440 223.279 C 138.994 222.925,138.052 221.517,137.366 221.673 C 136.512 221.867,134.089 223.120,134.089 223.368 C 134.089 223.477,133.935 223.566,133.745 223.566 C 133.556 223.566,133.113 223.793,132.760 224.071 C 132.408 224.348,131.939 224.575,131.718 224.575 C 131.498 224.575,131.317 224.660,131.317 224.765 C 131.317 224.870,130.974 225.107,130.555 225.293 C 130.136 225.478,129.623 225.801,129.414 226.009 C 129.205 226.218,128.584 226.449,128.033 226.523 C 127.483 226.597,127.032 226.747,127.032 226.856 C 127.032 226.966,126.692 227.130,126.276 227.221 C 125.860 227.313,125.520 227.492,125.520 227.619 C 125.520 227.747,125.246 227.851,124.911 227.851 C 124.576 227.851,124.261 227.973,124.211 228.122 C 124.075 228.530,119.165 228.572,119.030 228.166 C 118.972 227.993,118.764 227.851,118.568 227.851 C 118.371 227.851,118.210 227.746,118.210 227.616 C 118.210 227.487,117.978 227.307,117.694 227.217 C 117.409 227.127,116.849 226.751,116.448 226.381 C 116.047 226.011,115.204 225.255,114.575 224.701 C 113.945 224.146,113.428 223.592,113.426 223.469 C 113.423 223.347,113.166 222.999,112.854 222.697 C 112.272 222.133,111.786 221.459,111.481 220.794 C 111.385 220.586,111.159 220.266,110.978 220.083 C 110.797 219.900,110.649 219.588,110.649 219.390 C 110.649 219.192,110.554 219.030,110.438 219.030 C 110.321 219.030,110.009 218.577,109.744 218.024 C 109.479 217.471,109.188 217.018,109.096 217.016 C 109.004 217.015,108.852 216.560,108.759 216.005 C 108.665 215.451,108.495 214.997,108.381 214.997 C 108.266 214.997,108.096 214.544,108.003 213.990 C 107.909 213.436,107.743 212.927,107.632 212.859 C 107.113 212.538,106.904 205.710,107.351 203.655 C 107.719 201.963,108.225 200.269,108.405 200.126 C 108.493 200.057,108.653 199.716,108.761 199.370 C 108.869 199.023,109.338 198.274,109.803 197.706 C 110.268 197.137,110.649 196.582,110.649 196.474 C 110.649 195.828,115.192 191.808,115.922 191.808 C 116.349 191.808,116.698 191.911,116.698 192.037 C 116.698 192.162,117.294 192.346,118.021 192.445 C 118.749 192.545,119.416 192.738,119.503 192.875 C 119.724 193.224,122.974 193.262,123.198 192.918 C 123.296 192.767,123.689 192.566,124.071 192.473 C 124.452 192.379,124.764 192.192,124.764 192.056 C 124.764 191.920,125.019 191.807,125.331 191.805 C 125.643 191.804,126.392 191.520,126.995 191.175 C 127.598 190.830,128.200 190.548,128.332 190.548 C 128.569 190.548,129.700 190.068,132.247 188.887 C 132.966 188.553,133.703 188.276,133.885 188.272 C 134.067 188.267,134.436 188.097,134.705 187.894 C 134.974 187.690,135.351 187.524,135.542 187.524 C 136.437 187.524,136.924 186.078,136.372 185.063 C 136.241 184.822,136.065 184.200,135.982 183.680 C 135.899 183.160,135.723 182.735,135.590 182.735 C 135.458 182.735,135.350 182.566,135.350 182.359 C 135.350 182.152,135.009 181.658,134.594 181.260 C 134.178 180.863,133.837 180.408,133.837 180.250 C 133.837 180.092,133.709 179.962,133.552 179.962 C 133.395 179.962,133.083 179.763,132.859 179.520 C 132.367 178.985,130.290 177.946,129.714 177.946 C 129.487 177.946,129.301 177.845,129.301 177.721 C 129.301 176.927,121.382 176.443,118.967 177.090 M173.787 176.851 C 173.371 176.920,172.923 177.081,172.791 177.209 C 172.660 177.337,172.291 177.442,171.972 177.442 C 171.653 177.442,171.393 177.546,171.393 177.674 C 171.393 177.801,171.052 177.980,170.636 178.072 C 170.221 178.163,169.880 178.340,169.880 178.465 C 169.880 178.590,169.597 178.764,169.250 178.850 C 168.904 178.937,168.620 179.110,168.620 179.233 C 168.620 179.357,168.450 179.458,168.242 179.458 C 168.034 179.458,167.864 179.559,167.864 179.683 C 167.864 179.806,167.580 179.979,167.234 180.066 C 166.887 180.153,166.604 180.326,166.604 180.451 C 166.604 180.576,166.263 180.753,165.848 180.844 C 165.432 180.936,165.091 181.103,165.091 181.215 C 165.091 181.328,164.808 181.491,164.461 181.578 C 164.115 181.665,163.831 181.847,163.831 181.983 C 163.831 182.119,163.661 182.231,163.453 182.231 C 163.245 182.231,163.075 182.335,163.075 182.463 C 163.075 182.590,162.735 182.769,162.319 182.861 C 161.903 182.952,161.563 183.131,161.563 183.259 C 161.563 183.386,161.332 183.491,161.051 183.491 C 160.769 183.491,160.473 183.661,160.394 183.869 C 160.314 184.077,160.034 184.247,159.771 184.247 C 159.509 184.247,159.294 184.348,159.294 184.472 C 159.294 184.595,159.039 184.762,158.727 184.842 C 158.415 184.922,157.870 185.246,157.517 185.562 C 156.819 186.186,156.109 186.674,155.514 186.939 C 155.306 187.032,154.909 187.343,154.631 187.631 C 154.354 187.918,153.617 188.551,152.993 189.036 C 151.866 189.913,151.522 190.254,149.828 192.187 C 147.186 195.198,144.347 200.087,144.006 202.211 C 143.922 202.734,143.755 203.223,143.634 203.297 C 143.514 203.372,143.415 203.709,143.415 204.048 C 143.415 204.386,143.321 204.663,143.205 204.663 C 142.971 204.663,142.987 204.574,142.760 207.183 C 142.669 208.223,142.492 209.204,142.365 209.363 C 142.090 209.710,142.120 216.509,142.396 216.509 C 142.502 216.509,142.655 217.149,142.735 217.931 C 142.816 218.713,143.002 219.473,143.149 219.620 C 143.295 219.767,143.415 220.147,143.415 220.466 C 143.415 220.785,143.529 221.046,143.667 221.046 C 143.806 221.046,143.923 221.244,143.928 221.487 C 143.933 221.730,144.156 222.382,144.423 222.936 C 144.691 223.491,144.914 224.086,144.919 224.260 C 144.924 224.433,145.014 224.575,145.120 224.575 C 145.312 224.575,145.768 225.321,146.080 226.150 C 146.172 226.393,146.347 226.591,146.469 226.591 C 146.592 226.591,146.692 226.738,146.692 226.918 C 146.692 227.325,147.294 228.148,148.519 229.414 C 149.039 229.952,149.466 230.529,149.467 230.697 C 149.468 230.864,149.921 231.399,150.473 231.884 C 151.024 232.369,151.478 232.880,151.481 233.018 C 151.485 233.246,152.748 234.583,154.927 236.665 C 155.367 237.085,155.837 237.429,155.971 237.429 C 156.106 237.429,156.271 237.574,156.340 237.752 C 156.408 237.929,156.902 238.298,157.438 238.571 C 157.974 238.844,158.469 239.130,158.538 239.207 C 158.812 239.509,160.534 240.202,161.013 240.202 C 161.292 240.202,161.568 240.343,161.626 240.517 C 161.705 240.752,162.793 240.832,165.919 240.832 C 168.934 240.832,170.196 240.743,170.422 240.517 C 170.596 240.343,171.033 240.202,171.395 240.202 C 171.756 240.202,172.273 240.035,172.542 239.832 C 172.811 239.628,173.286 239.458,173.598 239.454 C 173.910 239.449,174.165 239.332,174.165 239.193 C 174.165 239.055,174.442 238.941,174.780 238.941 C 175.119 238.941,175.467 238.826,175.554 238.685 C 175.641 238.544,175.818 238.494,175.947 238.574 C 176.076 238.654,176.183 238.627,176.184 238.515 C 176.185 238.403,176.696 238.087,177.318 237.814 C 177.941 237.540,178.450 237.233,178.450 237.132 C 178.450 237.031,178.847 236.873,179.332 236.782 C 179.817 236.691,180.214 236.525,180.214 236.413 C 180.214 236.301,180.555 236.134,180.970 236.043 C 181.386 235.952,181.727 235.797,181.727 235.700 C 181.727 235.603,182.294 235.304,182.987 235.035 C 183.680 234.766,184.247 234.469,184.247 234.376 C 184.247 234.283,184.558 234.129,184.938 234.034 C 185.317 233.938,185.686 233.784,185.757 233.691 C 185.827 233.598,186.282 233.319,186.767 233.071 C 187.253 232.822,188.047 232.059,188.532 231.375 C 189.017 230.691,189.499 230.129,189.603 230.125 C 189.707 230.122,189.792 229.950,189.792 229.742 C 189.792 229.534,189.877 229.363,189.981 229.362 C 190.085 229.361,190.453 228.936,190.798 228.417 C 191.143 227.898,191.496 227.417,191.582 227.347 C 192.194 226.853,192.565 225.427,192.565 223.568 L 192.565 221.527 191.619 221.701 C 191.100 221.797,190.616 221.963,190.546 222.071 C 190.475 222.178,190.106 222.344,189.727 222.440 C 189.347 222.535,189.036 222.714,189.036 222.838 C 189.036 222.961,188.866 223.062,188.658 223.062 C 188.450 223.062,188.280 223.174,188.280 223.310 C 188.280 223.446,187.996 223.628,187.650 223.715 C 187.303 223.802,187.020 223.974,187.020 224.098 C 187.020 224.221,186.887 224.323,186.726 224.323 C 186.564 224.323,185.613 224.833,184.612 225.457 C 183.611 226.081,182.496 226.591,182.133 226.591 C 181.771 226.591,181.474 226.695,181.474 226.823 C 181.474 226.951,181.110 227.135,180.664 227.233 C 179.813 227.420,178.930 227.840,178.682 228.175 C 178.461 228.474,173.677 228.523,173.465 228.229 C 173.232 227.907,172.402 227.375,171.834 227.184 C 171.591 227.103,171.393 226.944,171.393 226.831 C 171.393 226.718,171.167 226.553,170.892 226.466 C 170.256 226.264,166.925 222.922,166.722 222.283 C 166.638 222.018,166.464 221.802,166.335 221.802 C 166.205 221.802,166.100 221.684,166.100 221.540 C 166.100 221.241,165.063 219.703,164.776 219.576 C 164.672 219.530,164.587 219.331,164.587 219.135 C 164.587 218.938,164.474 218.778,164.335 218.778 C 164.197 218.778,164.083 218.565,164.083 218.304 C 164.083 218.044,163.925 217.700,163.731 217.539 C 163.538 217.379,163.306 216.854,163.216 216.374 C 163.126 215.894,162.944 215.501,162.812 215.501 C 162.679 215.501,162.570 215.246,162.569 214.934 C 162.568 214.622,162.398 214.042,162.191 213.645 C 161.984 213.248,161.815 212.605,161.815 212.217 C 161.815 211.828,161.689 211.468,161.534 211.417 C 161.178 211.298,161.146 204.290,161.499 203.841 C 161.634 203.669,161.810 203.102,161.890 202.580 C 162.054 201.515,164.025 197.353,164.367 197.353 C 164.488 197.353,164.587 197.200,164.587 197.013 C 164.587 196.562,166.364 194.599,168.615 192.562 C 169.271 191.969,169.653 191.803,170.128 191.903 C 170.477 191.978,171.443 192.178,172.275 192.349 C 173.106 192.519,173.861 192.767,173.950 192.900 C 174.417 193.590,177.065 193.102,179.836 191.816 C 181.935 190.842,183.218 190.296,183.410 190.296 C 183.520 190.296,184.207 190.013,184.937 189.666 C 185.666 189.319,186.860 188.752,187.590 188.406 C 188.320 188.059,189.099 187.776,189.321 187.776 C 189.963 187.776,191.108 186.762,190.844 186.427 C 190.720 186.268,190.551 185.570,190.470 184.877 C 190.319 183.583,189.813 182.236,189.477 182.233 C 189.373 182.232,189.287 182.089,189.287 181.916 C 189.286 181.589,188.325 180.497,187.191 179.533 C 186.450 178.902,184.465 177.946,183.898 177.946 C 183.690 177.946,183.451 177.832,183.365 177.694 C 183.279 177.555,182.898 177.442,182.518 177.442 C 182.138 177.442,181.714 177.329,181.576 177.190 C 181.304 176.918,175.027 176.645,173.787 176.851 M59.613 190.233 C 59.515 190.892,59.341 191.488,59.227 191.559 C 59.112 191.630,58.935 192.027,58.832 192.441 C 58.728 192.856,58.449 193.543,58.212 193.968 C 57.974 194.393,57.700 195.102,57.603 195.543 C 57.506 195.984,57.332 196.345,57.217 196.345 C 57.102 196.345,56.930 196.799,56.837 197.353 C 56.743 197.908,56.563 198.362,56.437 198.362 C 56.310 198.362,56.207 198.645,56.207 198.992 C 56.207 199.338,56.098 199.622,55.966 199.622 C 55.834 199.622,55.651 200.019,55.560 200.504 C 55.469 200.989,55.306 201.386,55.198 201.386 C 55.090 201.386,54.925 201.698,54.831 202.079 C 54.678 202.701,54.332 203.508,52.965 206.427 C 52.738 206.912,52.471 207.346,52.371 207.391 C 52.271 207.435,52.117 207.861,52.028 208.336 C 51.939 208.811,51.790 209.200,51.698 209.200 C 51.606 209.200,51.307 209.709,51.033 210.332 C 50.760 210.954,50.460 211.464,50.367 211.466 C 50.274 211.467,50.123 211.808,50.032 212.224 C 49.940 212.640,49.774 212.980,49.663 212.980 C 49.551 212.980,49.392 213.179,49.309 213.422 C 49.225 213.664,48.877 214.316,48.534 214.871 C 48.191 215.425,47.906 216.021,47.900 216.194 C 47.894 216.367,47.691 216.719,47.448 216.975 C 46.620 217.851,46.176 218.471,46.015 218.979 C 45.926 219.259,45.688 219.551,45.485 219.629 C 45.282 219.706,45.117 219.923,45.117 220.110 C 45.117 220.298,44.861 220.680,44.549 220.959 C 44.238 221.238,43.501 221.968,42.912 222.580 C 41.273 224.285,40.940 224.575,40.622 224.575 C 40.460 224.575,40.328 224.670,40.328 224.787 C 40.328 225.828,36.491 225.533,35.999 224.454 C 35.840 224.104,35.620 223.819,35.510 223.819 C 35.400 223.819,35.231 223.393,35.136 222.873 C 35.040 222.353,34.889 221.871,34.800 221.802 C 34.464 221.540,34.089 218.840,34.169 217.265 C 34.331 214.105,34.588 211.592,34.776 211.342 C 34.880 211.204,35.043 210.585,35.137 209.968 C 35.232 209.351,35.394 208.728,35.497 208.582 C 35.601 208.437,35.835 207.864,36.018 207.309 C 36.546 205.709,37.843 203.107,38.613 202.106 C 39.002 201.601,39.319 201.103,39.319 201.000 C 39.319 200.794,43.524 196.597,43.731 196.597 C 43.889 196.597,45.533 195.398,46.314 194.714 C 46.681 194.392,46.881 193.932,46.881 193.409 C 46.881 192.528,48.640 191.437,50.563 191.125 C 51.033 191.049,51.418 190.895,51.418 190.783 C 51.418 190.671,51.957 190.501,52.615 190.406 C 53.273 190.311,53.926 190.146,54.064 190.041 C 54.203 189.935,54.940 189.766,55.703 189.666 C 56.465 189.566,57.259 189.386,57.467 189.267 C 57.675 189.149,58.283 189.048,58.819 189.044 L 59.793 189.036 59.613 190.233 M233.333 189.669 C 234.754 189.764,235.917 189.906,235.917 189.986 C 235.917 190.209,232.056 193.825,231.817 193.825 C 231.702 193.825,231.358 194.093,231.053 194.420 C 230.748 194.747,230.243 195.095,229.931 195.193 C 229.619 195.291,229.364 195.477,229.364 195.606 C 229.364 195.735,229.193 195.841,228.986 195.841 C 228.778 195.841,228.607 195.952,228.607 196.088 C 228.607 196.224,228.324 196.407,227.977 196.494 C 227.631 196.581,227.347 196.748,227.347 196.865 C 227.347 196.982,226.922 197.275,226.402 197.517 C 225.882 197.759,225.366 198.104,225.255 198.285 C 225.144 198.466,224.889 198.614,224.688 198.614 C 224.487 198.614,224.323 198.727,224.323 198.866 C 224.323 199.004,224.092 199.118,223.811 199.118 C 223.529 199.118,223.237 199.278,223.162 199.473 C 223.087 199.669,222.748 199.898,222.408 199.984 C 222.068 200.069,221.586 200.334,221.338 200.574 C 221.090 200.813,220.327 201.292,219.643 201.638 C 218.959 201.985,218.229 202.439,218.021 202.647 C 217.813 202.854,217.076 203.308,216.383 203.655 C 215.690 204.001,215.085 204.370,215.039 204.474 C 214.675 205.292,214.325 203.731,214.190 200.693 C 214.164 200.104,214.051 199.622,213.939 199.622 C 213.828 199.622,213.737 198.828,213.737 197.858 C 213.737 196.887,213.836 196.093,213.956 196.093 C 214.077 196.093,214.249 195.640,214.337 195.085 C 214.426 194.531,214.604 194.077,214.734 194.077 C 214.863 194.077,215.169 193.737,215.415 193.321 C 215.661 192.905,215.999 192.565,216.167 192.565 C 216.336 192.565,216.623 192.416,216.806 192.233 C 216.989 192.051,217.763 191.684,218.526 191.416 C 219.288 191.149,219.968 190.858,220.038 190.770 C 220.107 190.682,220.674 190.533,221.298 190.439 C 221.922 190.345,222.659 190.165,222.936 190.039 C 224.216 189.458,228.076 189.321,233.333 189.669 " stroke="none" fill="#74e85b" fill-rule="evenodd"></path></g></svg>